<?xml version="1.0" encoding="utf-8"?>
<!-- Generator: Adobe Illustrator 23.0.6, SVG Export Plug-In . SVG Version: 6.00 Build 0)  -->
<svg version="1.1" id="chicken" xmlns="http://www.w3.org/2000/svg" xmlns:xlink="http://www.w3.org/1999/xlink" x="0px" y="0px"
	 viewBox="0 0 960 960" style="enable-background:new 0 0 960 960;" xml:space="preserve">
<style type="text/css">
	.st0{fill:#FF7676;stroke:#8E6642;stroke-width:6;stroke-miterlimit:10;}
	.st1{fill:#FF7676;stroke:#8E6642;stroke-width:3;stroke-miterlimit:10;}
	.st2{fill:#FFFFFF;stroke:#8E6642;stroke-width:5;stroke-miterlimit:10;}
	.st3{fill:#8E6642;}
	.st4{fill:#FFAEAE;}
	.st5{fill:#FFFFFF;}
	.st6{fill:#FFE266;stroke:#8E6642;stroke-width:4;stroke-linecap:round;stroke-linejoin:round;stroke-miterlimit:10;}
	.st7{fill:none;stroke:#8E6642;stroke-width:4;stroke-linecap:round;stroke-linejoin:round;stroke-miterlimit:10;}
</style>
<path class="st0" d="M392.69,669.38c0,0-10.42-460.4-236.1-410.26c0,0,70.58,17.02,68.83,68.04c0,0-46.66-34.04-108.88,5.68
	c0,0,147.27,72.54,90.71,157.2c-56.56,84.66-26.34,224.15,84.99,240.66C399.06,746.52,393.01,678.11,392.69,669.38z"/>
<path class="st1" d="M454.26,202.37c0,0,1.69-118.08,65.84-131.49c64.15-13.42-4.22,65.75-4.22,65.75s72.07-35.33,25.06,27.28
	c0,0,71.59-22.19,21.57,43.47l-84.62,12L454.26,202.37z"/>
<g>
	<path class="st2" d="M599.09,389.56c0,0,43.01-196.62,54.37-252.49c9.46-46.52,70.06,29.46,53.18,102.84c0,0,94.54-54.54,35.45,102
		c0,0,105.28-11.32-79.17,181.59h-40.69l-59.93-87.26L599.09,389.56z"/>
	<g>
		<path class="st3" d="M686.15,273.36c1.22,8.86,0.84,17.34-0.05,25.69c-0.96,8.33-2.54,16.5-4.76,24.51c-2.23,8-5,15.85-8.65,23.43
			c-1.85,3.78-3.81,7.5-6.23,11.07c-1.17,1.77-2.42,3.54-3.88,5.18c-1.32,1.67-3.01,3.24-4.68,4.52c1.08-8.75,1.72-16.8,3.16-24.94
			c1.39-8.08,3.09-16.08,5.3-23.92c2.2-7.86,4.78-15.62,7.93-23.24C677.5,288.04,681.1,280.53,686.15,273.36z"/>
	</g>
	<g>
		<path class="st3" d="M725.2,360.63c-1.38,7.06-4.17,13.03-7.41,18.61c-3.29,5.53-7.2,10.56-11.61,15.09
			c-4.4,4.53-9.45,8.51-15.08,11.68c-5.56,3.02-12.2,5.68-19.07,4.57c4.43-5.34,7.71-10.1,11.53-14.83
			c3.73-4.68,7.65-9.09,11.82-13.35c4.17-4.26,8.63-8.27,13.47-12C713.72,366.71,718.89,363.25,725.2,360.63z"/>
	</g>
</g>
<g>
	<path class="st2" d="M400.21,389.56c0,0-43.01-196.62-54.37-252.49c-9.46-46.52-70.06,29.46-53.18,102.84
		c0,0-94.54-54.54-35.45,102c0,0-105.27-11.32,79.17,181.59h40.69L437,436.24L400.21,389.56z"/>
	<g>
		<path class="st3" d="M313.15,273.36c5.05,7.17,8.65,14.68,11.85,22.29c3.15,7.62,5.73,15.39,7.93,23.24
			c2.21,7.85,3.92,15.85,5.3,23.92c1.44,8.14,2.08,16.19,3.16,24.94c-1.67-1.27-3.37-2.85-4.68-4.52c-1.46-1.64-2.71-3.41-3.88-5.18
			c-2.42-3.57-4.37-7.29-6.23-11.07c-3.64-7.58-6.42-15.43-8.65-23.43c-2.22-8-3.8-16.18-4.76-24.51
			C312.31,290.71,311.93,282.22,313.15,273.36z"/>
	</g>
	<g>
		<path class="st3" d="M274.1,360.63c6.31,2.62,11.48,6.08,16.36,9.78c4.84,3.73,9.3,7.74,13.47,12c4.18,4.26,8.09,8.68,11.82,13.35
			c3.82,4.73,7.1,9.49,11.53,14.83c-6.88,1.11-13.51-1.55-19.07-4.57c-5.63-3.17-10.68-7.15-15.08-11.68
			c-4.42-4.53-8.32-9.56-11.61-15.09C278.27,373.66,275.48,367.68,274.1,360.63z"/>
	</g>
</g>
<path class="st2" d="M661.99,603.29c6.54-65.83-24.12-135.63-24.12-135.63L476.2,425.4l-100.16-7.83l-21.38,43.62
	c0,0-30.58,76.65-16.63,146.14c-9.96,12.41-16,28.46-16,46.03c0,39.28,30.04,71.11,67.1,71.11c16.35,0,31.33-6.21,42.97-16.51
	c20.82,6.18,45.75,9.7,75.62,9.67c25.7-0.02,47.36-2.94,65.61-8.08c11.35,9.32,25.55,14.92,41.02,14.92
	c37.06,0,67.1-31.83,67.1-71.11C681.45,633.82,674.01,616.14,661.99,603.29z"/>
<path class="st2" d="M322.02,457.6c0,0,20.26,35.78,83.28,15.51c0,0,5.63,77.53,64.15,23.86c0,0,42.76,44.13,69.77,0
	c0,0,46.14,32.21,64.15-15.51c0,0,71.41,21.46,60.21-22.36c0,0-34.33-64.71-39.95-105.26c-5.63-40.55-6.75-171.15-138.42-163.97
	c-132.97,7.26-120.42,178.28-120.42,178.28S353.82,434.94,322.02,457.6z"/>
<g>
	<path class="st4" d="M386.46,338.73c-7.48,16.12-1.23,35.6,13.98,43.52c15.2,7.94,33.59,1.3,41.08-14.81
		c7.49-16.12,1.23-35.6-13.98-43.54C412.34,315.98,393.95,322.62,386.46,338.73z"/>
	<g>
		<path class="st3" d="M449.74,311.72c0,14.16-10.83,25.63-24.18,25.63c-13.35,0-24.18-11.47-24.18-25.63
			c0-14.15,10.83-25.62,24.18-25.62C438.91,286.1,449.74,297.57,449.74,311.72z"/>
		<path class="st5" d="M441.45,302.94c0,3.7-2.82,6.69-6.31,6.69c-3.49,0-6.31-2.99-6.31-6.69c0-3.69,2.82-6.68,6.31-6.68
			C438.63,296.26,441.45,299.25,441.45,302.94z"/>
	</g>
</g>
<g>
	<path class="st4" d="M595.93,331.68c7.48,16.12,1.23,35.6-13.98,43.53c-15.2,7.94-33.59,1.3-41.08-14.81
		c-7.49-16.13-1.23-35.6,13.99-43.54C570.05,308.94,588.44,315.58,595.93,331.68z"/>
	<g>
		<path class="st3" d="M532.65,304.68c0,14.16,10.83,25.62,24.18,25.62c13.35,0,24.18-11.47,24.18-25.62
			c0-14.16-10.83-25.62-24.18-25.62C543.48,279.06,532.65,290.53,532.65,304.68z"/>
		<path class="st5" d="M540.94,295.9c0,3.69,2.82,6.69,6.3,6.69c3.49,0,6.31-2.99,6.31-6.69c0-3.69-2.82-6.68-6.31-6.68
			C543.76,289.22,540.94,292.2,540.94,295.9z"/>
	</g>
</g>
<path class="st1" d="M479.28,340.4c0,0-27.8,63.26,14.13,45.21c0,0,29.88,13.69,26.22-9.89c-4.44-28.61-16.41-45.41-16.41-45.41
	L479.28,340.4z"/>
<polygon class="st6" points="463.26,324.02 493.4,304.68 520.1,324.02 491.68,353.08 "/>
<g>
	<path class="st4" d="M386.46,338.73c-7.48,16.12-1.23,35.6,13.98,43.52c15.2,7.94,33.59,1.3,41.08-14.81
		c7.49-16.12,1.23-35.6-13.98-43.54C412.34,315.98,393.95,322.62,386.46,338.73z"/>
	<g>
		<path class="st3" d="M449.74,311.72c0,14.16-10.83,25.63-24.18,25.63c-13.35,0-24.18-11.47-24.18-25.63
			c0-14.15,10.83-25.62,24.18-25.62C438.91,286.1,449.74,297.57,449.74,311.72z"/>
		<path class="st5" d="M441.45,302.94c0,3.7-2.82,6.69-6.31,6.69c-3.49,0-6.31-2.99-6.31-6.69c0-3.69,2.82-6.68,6.31-6.68
			C438.63,296.26,441.45,299.25,441.45,302.94z"/>
	</g>
</g>
<g>
	<path class="st7" d="M389.13,724.46c0,0-5.84,8.66,24.86,68.3c0,0-26.75,17.89-12.66,42.94"/>
	<path class="st7" d="M413.99,792.76c0,0-4.38,23.25,23.01,39.35"/>
	<path class="st7" d="M415.92,788.72c0,0,8.08-11.03,17.42-6.41"/>
</g>
<g>
	<path class="st7" d="M389.13,724.46c0,0-5.84,8.66,24.86,68.3c0,0-26.75,17.89-12.66,42.94"/>
	<path class="st7" d="M413.99,792.76c0,0-4.38,23.25,23.01,39.35"/>
	<path class="st7" d="M415.92,788.72c0,0,8.08-11.03,17.42-6.41"/>
</g>
<g>
	<path class="st7" d="M626.95,723.19c0,0,11.31,57.04,42.83,30.8c0,0-7.32,20.77,9,30.95"/>
	<path class="st7" d="M663.17,765.47c0,0-21.87,5.81-10.3,25.49"/>
	<path class="st7" d="M669.77,755.35c0,0,3.34-8.88,14.5-10.93"/>
</g>
</svg>
