<?xml version="1.0" encoding="utf-8"?>
<!-- Generator: Adobe Illustrator 23.0.6, SVG Export Plug-In . SVG Version: 6.00 Build 0)  -->
<svg version="1.1" id="cow" xmlns="http://www.w3.org/2000/svg" xmlns:xlink="http://www.w3.org/1999/xlink" x="0px" y="0px"
	 viewBox="0 0 960 960" style="enable-background:new 0 0 960 960;" xml:space="preserve">
<style type="text/css">
	.st0{fill:#FFFFFF;stroke:#8E6642;stroke-width:5;stroke-miterlimit:10;}
	.st1{fill:#4C5151;}
	.st2{fill:#4C5151;stroke:#8E6642;stroke-width:5;stroke-miterlimit:10;}
	.st3{fill:none;stroke:#8E6642;stroke-width:3;stroke-miterlimit:10;}
	.st4{fill:#4C5151;stroke:#8E6642;stroke-width:3;stroke-miterlimit:10;}
	.st5{fill:#FF9999;stroke:#8E6642;stroke-width:3;stroke-miterlimit:10;}
	.st6{fill:#FFFFD2;stroke:#8E6642;stroke-width:5;stroke-miterlimit:10;}
	.st7{clip-path:url(#SVGID_1_);fill:#4C5151;}
	.st8{fill:#FFAEAE;}
	.st9{fill:#FFFF97;stroke:#8E6642;stroke-width:3;stroke-miterlimit:10;}
	.st10{fill:#FFC878;}
	.st11{fill:#8E6642;}
	.st12{fill:#FFFFFF;}
</style>
<g id="leg_x5F_cow">
	<g id="legleft_x5F_cow">
		<path class="st0" d="M413.39,453.12c0,0-98.81,87.23-111.33,187.77c0,0,30.04,31.57,75.73,22.55L413.39,453.12z"/>
		<path class="st1" d="M319.9,600.49c0,0,22.6,18.08,46.77,21.23l-20.54,34.14c0,0-28.18-7.52-36.06-17.75
			C310.08,638.1,314.98,608.45,319.9,600.49z"/>
	</g>
	<g id="legright_x5F_cow">
		<path class="st0" d="M603.73,453.12c0,0,98.82,87.23,111.33,187.77c0,0-30.04,31.57-75.72,22.55L603.73,453.12z"/>
		<path class="st1" d="M697.02,600.22c0,0-22.4,18.35-46.57,21.5l22.53,33.8c0,0,26.5-7.27,34.38-17.49
			C707.35,638.02,701.94,608.19,697.02,600.22z"/>
	</g>
	<g id="foot_x5F_coe">
		<path class="st2" d="M385.92,748.51c0,0,49.44,116,83.86,140.49h32.54V763.33l-96.37-27.71L385.92,748.51z"/>
		<path class="st0" d="M647.45,742.31c0,0-49.44,122.2-83.85,146.69h-32.55V763.33l96.38-27.71L647.45,742.31z"/>
	</g>
</g>
<g id="tail_x5F_cow">
	<path class="st3" d="M659.4,695.02c0,0,112.33,26.74,105.14-29.95c-11.14-87.74,0-112.6,23.78-118.01"/>
	<path class="st4" d="M824,479.1c0,0-88.55,47.88-47.66,75.32C817.24,581.87,824,479.1,824,479.1z"/>
</g>
<path id="body_x5F_cow" class="st0" d="M576.8,421.76c-97.63-105.69-159.01,22.77-159.01,22.77S268.9,722.09,425.35,767.2
	c0,0,108.89,38.67,208.39-18.36C733.24,691.79,576.8,421.76,576.8,421.76z"/>
<path id="belt" class="st5" d="M393.78,437.16c0,0-12.15,27.42,7.36,41.94c0,0,145.44,39.25,211.54-20.97c0,0,6-23.84-5.87-31.72
	l-130.77-4.65L393.78,437.16z"/>
<g id="horn_x5F_cow">
	<path id="left" class="st6" d="M399.69,195.79c0,0-38.86-103.33-8.14-113.99c29.72-10.31,61.16,81.65,61.16,81.65v1.97l3.14,30.37
		l-24.41,8.36L399.69,195.79z"/>
	<path id="righthorn" class="st6" d="M603.41,198.96c0,0,38.86-103.33,8.13-113.99c-29.72-10.31-61.16,81.65-61.16,81.65v1.97
		l-3.14,30.37l24.41,8.36L603.41,198.96z"/>
</g>
<g id="ear_x5F_cow">
	<path id="leftyear" class="st4" d="M391.25,204.16c0,0-94.29,51.64-149.88,48.76c-55.85-2.9-36.3,93.18,95.75,51.74l62.58-60.77
		L391.25,204.16z"/>
	<path id="rightear" class="st4" d="M603.85,204.16c0,0,94.29,51.64,149.88,48.76c55.85-2.9,36.3,93.18-95.75,51.74l-62.58-60.77
		L603.85,204.16z"/>
</g>
<path id="head_x5F_cow" class="st0" d="M394.65,202.29c0,0-150.93,170.57-32.77,232.96c118.15,62.38,232.25,8.6,232.25,8.6
	s95.34-46.59,77.11-118.15C654.36,259.45,533.81,69.46,394.65,202.29z"/>
<g id="spots_x5F_cow">
	<g>
		<defs>
			<path id="SVGID_3_" d="M395.77,207.12c0,0-145.95,155.69-31.1,213.17c114.84,57.48,225.41,8.61,225.41,8.61
				s99.91-42.24,74.47-107.92C635.63,246.33,530.41,85.94,395.77,207.12z"/>
		</defs>
		<clipPath id="SVGID_1_">
			<use xlink:href="#SVGID_3_"  style="overflow:visible;"/>
		</clipPath>
		<path class="st7" d="M463.22,168.76c0,0-79.08,251.34,194.41,202.27l38.4-48.16v-90.31l-88.78-77.28l-68.13-15.79l-91.84-7.37
			L463.22,168.76z"/>
	</g>
	<path class="st1" d="M530.69,855.96h22.68c0,0,18.62-16.88,26.95-35.85h-49.63V855.96z"/>
	<path class="st1" d="M370.28,642.82c0,0-15.02,102.47,80.73,112.78C451.01,755.6,470.09,643.14,370.28,642.82z"/>
	<path class="st1" d="M603.7,513.93c0,0-39.95-5.07-39.69,66.1c0.26,71.16-125.99,121.29-8.19,168.8c0,0,31.61,11.93,74.79-17.08
		c43.18-29,16.84-105.06,16.84-105.06s-23.73-94.9-41.87-112.86"/>
</g>
<g id="check_x5F_cow">
	<path class="st8" d="M530.83,314.64c-10.76,22.52-1.77,49.74,20.1,60.82c21.86,11.08,48.3,1.82,59.08-20.7
		c10.76-22.52,1.75-49.74-20.12-60.82C568.03,282.86,541.59,292.13,530.83,314.64z"/>
	<path class="st8" d="M347.41,329.45c-8.6,18-1.41,39.76,16.07,48.62c17.47,8.87,38.61,1.45,47.22-16.55
		c8.6-18,1.4-39.76-16.07-48.62C377.15,304.05,356.01,311.46,347.41,329.45z"/>
</g>
<g id="ring">
	<path id="ringbody" class="st9" d="M435.67,539.16c0,0,10.62-77.98,45.36-77.98c34.75,0,43.51,68.96,41.63,85.07
		C520.78,562.36,460.7,585.56,435.67,539.16z"/>
	<path id="rainshadow" class="st10" d="M442.87,538.09c0,0,25.66,39.83,72.6,8.96C515.46,547.05,483.23,507.47,442.87,538.09z"/>
</g>
<g id="eyes_x5F_cow">
	<path class="st11" d="M442.63,354.9c0,4.27-2.24,7.73-5,7.73c-2.76,0-5-3.46-5-7.73c0-4.27,2.24-7.73,5-7.73
		C440.39,347.17,442.63,350.63,442.63,354.9z"/>
	<path class="st11" d="M466.5,354.9c0,4.27-1.93,7.73-4.31,7.73c-2.38,0-4.31-3.46-4.31-7.73c0-4.27,1.93-7.73,4.31-7.73
		C464.57,347.17,466.5,350.63,466.5,354.9z"/>
	<g id="eye_x5F_cow">
		<path class="st12" d="M575.71,303.04c0,21.85-17.2,39.56-38.42,39.56c-21.21,0-38.41-17.71-38.41-39.56
			c0-21.85,17.2-39.56,38.41-39.56C558.52,263.48,575.71,281.19,575.71,303.04z"/>
		<path class="st11" d="M568.67,302.53c0,17.85-14.05,32.31-31.38,32.31c-17.32,0-31.37-14.46-31.37-32.31
			c0-17.84,14.05-32.31,31.37-32.31C554.62,270.22,568.67,284.69,568.67,302.53z"/>
		<path class="st12" d="M537.29,291.49c0,3.94-3.09,7.13-6.92,7.13c-3.82,0-6.92-3.19-6.92-7.13c0-3.94,3.1-7.13,6.92-7.13
			C534.2,284.36,537.29,287.55,537.29,291.49z"/>
	</g>
	<g id="eye_x5F_cow_1_">
		<path class="st11" d="M423.06,307.44c0,18.53-14.59,33.56-32.58,33.56c-18,0-32.58-15.02-32.58-33.56
			c0-18.53,14.59-33.55,32.58-33.55C408.47,273.89,423.06,288.91,423.06,307.44z"/>
		<path class="st12" d="M390.47,295.98c0,4.09-3.22,7.4-7.19,7.4c-3.97,0-7.19-3.32-7.19-7.4s3.22-7.4,7.19-7.4
			C387.26,288.58,390.47,291.89,390.47,295.98z"/>
	</g>
	<path class="st11" d="M423.06,341c2.69-4.13,6.63-7.13,10.92-9.37c4.33-2.19,9.2-3.43,14.15-3.51c4.94-0.14,9.97,0.94,14.33,3.25
		c4.43,2.14,8.1,5.6,10.76,9.63c-4.7-1.21-8.7-2.75-12.86-3.4c-4.06-0.89-8.06-1.2-12.08-1.1
		C440.19,336.57,432.18,338.52,423.06,341z"/>
</g>
</svg>
