<?xml version="1.0" encoding="utf-8"?>
<!-- Generator: Adobe Illustrator 23.0.6, SVG Export Plug-In . SVG Version: 6.00 Build 0)  -->
<svg version="1.1" id="dog" xmlns="http://www.w3.org/2000/svg" xmlns:xlink="http://www.w3.org/1999/xlink" x="0px" y="0px"
	 viewBox="0 0 960 960" style="enable-background:new 0 0 960 960;" xml:space="preserve">
<style type="text/css">
	.st0{fill:#D3AD76;stroke:#8E6642;stroke-width:5;stroke-miterlimit:10;}
	.st1{fill:#F9E4C2;stroke:#8E6642;stroke-width:5;stroke-miterlimit:10;}
	.st2{fill:#D3AD76;}
	.st3{fill:none;stroke:#8E6642;stroke-width:4;stroke-linecap:round;stroke-linejoin:round;stroke-miterlimit:10;}
	.st4{fill:#FF9999;stroke:#8E6642;stroke-width:4;stroke-linecap:round;stroke-linejoin:round;stroke-miterlimit:10;}
	.st5{fill:#FFAEAE;}
	.st6{fill:#8E6642;}
	.st7{fill:#FFFFFF;}
	.st8{fill:none;stroke:#8E6642;stroke-width:3;stroke-linecap:round;stroke-linejoin:round;stroke-miterlimit:10;}
	.st9{fill:none;stroke:#8E6642;stroke-width:2;stroke-linecap:round;stroke-linejoin:round;stroke-miterlimit:10;}
	.st10{fill:#FF9999;stroke:#8E6642;stroke-width:2;stroke-miterlimit:10;}
</style>
<path class="st0" d="M352.41,617.04c0,0-39.3-165.89-105.62-134.36c-66.31,31.54,84.87,144.64,96.43,155.95L352.41,617.04z"/>
<path class="st1" d="M591.8,441.56c0,0,70.09,116.1,65.35,151.96c0,0,72.79,49.56,0.23,166.1c0,0-38.43,34.28-65.57,23.31
	c-27.14-10.97-86.43-16.24-131.49,2.16c-45.06,18.4-179.35,28.12-140.22-171.77c0,0,16.01-41.53,56.02-31.25
	c0,0,25.79-106.65,59.59-144.84L536.2,413.6l56.17,28.9"/>
<path class="st0" d="M357.37,709c0,0-69.5-112.72-106.78-77.81c0,0-6.83,7.41-2.18,23.51c4.64,16.1,65.95,100.02,73.46,113.04
	c6.33,10.97,41.92,30.16,47.25-18.95C369.11,748.78,372.4,734.58,357.37,709z"/>
<path class="st0" d="M646.58,709c0,0,69.51-112.72,106.78-77.81c0,0,6.83,7.41,2.18,23.51c-4.64,16.1-65.95,100.02-73.46,113.04
	c-6.33,10.97-41.92,30.16-47.24-18.95C634.84,748.78,631.56,734.58,646.58,709z"/>
<path class="st2" d="M621.95,648.55C617.94,687.4,564.01,810,564.01,810h-30.65c-10.7-101.97,53.19-264.63,53.19-264.63
	s50.96,12,32.06,104.33"/>
<path class="st3" d="M621.95,648.55C617.94,687.4,564.01,810,564.01,810h-30.65c-10.7-101.97,53.19-264.63,53.19-264.63"/>
<path class="st2" d="M420.72,648.55C424.73,687.4,478.66,810,478.66,810h30.65c10.7-101.97-53.19-264.63-53.19-264.63
	s-50.95,12-32.05,104.33"/>
<path class="st3" d="M420.72,648.55C424.73,687.4,478.66,810,478.66,810h30.65c10.7-101.97-53.19-264.63-53.19-264.63"/>
<polygon class="st4" points="410.63,457.38 549.42,596.21 604.96,413.6 572.53,430.34 464.41,438.84 "/>
<path class="st0" d="M481.5,151.98c0,0,189.87,11.13,275.95-15.06c84.92-25.82,18.39,89.79-61.77,119.94
	c-80.16,30.14-165.94-45.99-165.94-45.99l-45.65-54.1L481.5,151.98z"/>
<path class="st1" d="M385.89,188.12c0,0-142.44,173.72-30.35,237.86c112.09,64.15,220,9.62,220,9.62s90.16-47.27,72.68-120.43
	C632.04,247.42,517.3,52.9,385.89,188.12z"/>
<g>
	<path class="st5" d="M392.98,316.92c-5.84,13.73-0.96,30.33,10.92,37.09c11.87,6.76,26.24,1.11,32.08-12.62
		c5.84-13.73,0.96-30.33-10.92-37.1C413.19,297.54,398.83,303.2,392.98,316.92z"/>
	<g>
		<path class="st6" d="M450.93,280.13c0,16.27-11.41,29.46-25.48,29.46c-14.07,0-25.48-13.18-25.48-29.46
			c0-16.27,11.41-29.46,25.48-29.46C439.52,250.68,450.93,263.86,450.93,280.13z"/>
		<path class="st7" d="M442.19,270.03c0,4.25-2.98,7.69-6.64,7.69c-3.68,0-6.64-3.44-6.64-7.69c0-4.25,2.97-7.68,6.64-7.68
			C439.21,262.35,442.19,265.79,442.19,270.03z"/>
	</g>
</g>
<path class="st2" d="M458.39,236.37c-2.38,8.36-13.13,11.78-24.02,7.64c-10.89-4.14-17.79-14.27-15.41-22.64
	c2.38-8.36,13.13-11.78,24.02-7.64C453.87,217.87,460.77,228.01,458.39,236.37z"/>
<path class="st2" d="M529.47,228.28c2.77,7.52,12.93,9.71,22.71,4.91c9.79-4.81,15.48-14.79,12.71-22.3
	c-2.76-7.52-12.93-9.72-22.71-4.91C532.4,210.78,526.71,220.77,529.47,228.28z"/>
<g>
	<path class="st5" d="M620.25,295.91c5.84,13.73,0.96,30.33-10.92,37.09c-11.87,6.76-26.24,1.11-32.08-12.62
		c-5.85-13.74-0.96-30.33,10.92-37.1C600.04,276.53,614.4,282.19,620.25,295.91z"/>
	<g>
		<path class="st6" d="M551.63,265.52c0,16.27,11.41,29.46,25.48,29.46c14.07,0,25.48-13.18,25.48-29.46
			c0-16.27-11.41-29.46-25.48-29.46C563.04,236.06,551.63,249.25,551.63,265.52z"/>
		<path class="st7" d="M570.47,252.34c0,4.25,2.97,7.69,6.64,7.69c3.68,0,6.64-3.44,6.64-7.69c0-4.25-2.97-7.68-6.64-7.68
			C573.44,244.66,570.47,248.09,570.47,252.34z"/>
	</g>
</g>
<g>
	<path class="st8" d="M479.77,295.7"/>
	<g>
		<g>
			<path class="st6" d="M501.19,248.99c0,0,6.09-5.16,12.91,0c7.47,5.65-6.66,9.61-6.66,9.61S494.62,254.05,501.19,248.99z"/>
		</g>
		<path class="st9" d="M507.79,254.46v16.99c0,0-16.79,12.85-26.79,22.89c-11.39,11.44-7.82-7.85-7.82-7.85"/>
	</g>
	<path class="st9" d="M507.79,271.46c0,0,17.28,12.83,29.61,22.89c11.55,9.42,5-7.85,5-7.85"/>
</g>
<path class="st0" d="M390.93,183.1c0,0-72.61,262.22-183.78,250.91c-111.17-11.31-116.5-70.95-116.5-70.95
	S320.1,189.28,390.93,183.1z"/>
<path class="st10" d="M482.62,295.7c0,0,3.55,42.98,28.38,44.74c21.86,1.54,26.4-46.09,26.4-46.09l-27.39-23.32L482.62,295.7z"/>
<g>
	<path class="st6" d="M486.99,246.7c1.46-3.44,3.8-6.34,6.57-8.61c2.77-2.28,6.15-3.76,9.67-4.08c3.49-0.21,7.13,0.49,10.08,2.53
		c1.59,0.76,2.81,2.2,4.16,3.3c1.21,1.34,2.3,2.79,3.29,4.28c-1.55-0.76-2.9-1.72-4.32-2.5c-1.49-0.61-2.8-1.58-4.29-1.96
		c-2.84-1.21-5.78-1.53-8.64-1.31C497.72,238.78,492.25,242.26,486.99,246.7z"/>
</g>
</svg>
