<?xml version="1.0" encoding="utf-8"?>
<!-- Generator: Adobe Illustrator 23.0.6, SVG Export Plug-In . SVG Version: 6.00 Build 0)  -->
<svg version="1.1" id="dragon" xmlns="http://www.w3.org/2000/svg" xmlns:xlink="http://www.w3.org/1999/xlink" x="0px" y="0px"
	 viewBox="0 0 960 960" style="enable-background:new 0 0 960 960;" xml:space="preserve">
<style type="text/css">
	.st0{fill:#EB7172;stroke:#8A6541;stroke-width:3;stroke-linecap:round;stroke-linejoin:round;stroke-miterlimit:10;}
	.st1{fill:#D4ED96;stroke:#8A6541;stroke-width:5;stroke-miterlimit:10;}
	.st2{fill:#FCFAE0;}
	.st3{fill:none;stroke:#8A6541;stroke-width:4;stroke-linecap:round;stroke-linejoin:round;stroke-miterlimit:10;}
	.st4{fill:#D4ED96;}
	.st5{fill:#F5DA68;stroke:#8A6541;stroke-width:4;stroke-linecap:round;stroke-linejoin:round;stroke-miterlimit:10;}
	.st6{fill:#84A344;}
	.st7{fill:#F2A8A9;}
	.st8{fill:#8A6541;}
	.st9{fill:#FFFFFF;}
	.st10{fill:none;stroke:#8A6541;stroke-width:3;stroke-linecap:round;stroke-linejoin:round;stroke-miterlimit:10;}
	.st11{fill:#EB7172;stroke:#8A6541;stroke-width:3;stroke-linecap:round;stroke-miterlimit:10;}
	.st12{fill:#EF9394;stroke:#8A6541;stroke-width:2;stroke-miterlimit:10;}
</style>
<g id="back_x5F_dragon">
	<path class="st0" d="M688.75,452.48c-8.81-5.35-15.21-12.17-22.47-16.11l0.09-0.16c28.23,8.04,53.93-42.03,53.93-42.03
		c-37.5,17.66-63.6-27.17-63.6-27.17c-28.69-88.73-128.52-95.98-128.52-95.98l-47.75,33.05l81.88,130.28c0,0,5.92,29.91,12.14,61.37
		l-1.92,6.89l4.46,5.97c5.58,28.27-41.89,52.78-41.21,56.58c1.52,8.59,33.07-11.7,33.07-11.7l-9.01,20.04l52.79-11.22
		c124.44-34.46,132.19-103.3,132.19-103.3S739.7,483.4,688.75,452.48z"/>
	<path class="st0" d="M816.48,524.14c0,0-50.89-43.11-43.25-92.75c0,0,14.7,12.73,23.54,12.4c0,0-21.77-35.26-2.3-71.84
		c0,0,36.02,19.6,36.02,46.71c0,0,17.16-29.07,31.8-36.9c0,0,9.54,27.41,0,62.04c0,0,17.81-0.65,26.72-5.22
		c0,0-0.88,53.06-55.47,89.24L816.48,524.14z"/>
	<path class="st0" d="M530.83,592.07c0,0,38.81-37.22,57.9-30.7c0,0-8.91,20.25,0,30.7c0,0,7.31,9.63,24.49-6.05
		c0,0,15.74,13.56,19.56,0.49c0,0,8.75-45.4,55.83-44.09c0,0-12.73,20.25,7.63,24.17c0,0,31.39,9.79,26.51-14.37
		c0,0,36.48-0.9,39.02,18.49c0,0,0.98-15.28,10.67-28.32c0,0,16.04,23.54,19.22,13.75c0,0,8.91-5.88-5.72-22.21
		c0,0,23.54-22.86,35,0v40.5l-13.74,50.29l-88.68,4.58l-47.72,18.1l-35.63,30.03l-42.62,15l-31.81-27.59l-22.27-17.44l-2.54-42.27
		L530.83,592.07z"/>
</g>
<g id="body_x5F_drgon">
	<path class="st1" d="M395.69,369.39c0,0-63.78-68.94-90.95-95.47c0,0-61.15,97.67,5.36,120.3l54.27,18.43L395.69,369.39z"/>
	<path class="st1" d="M395.69,609.45c0,0-33.64,8.71-42.65,4.59c-9.02-4.12-39.6-28.75-58.14-4.59
		c-18.55,24.15,12.42,13.28,23.46,14.3c0,0,16.06,52.49,86.27,31.17v-34.68L395.69,609.45z"/>
	<path class="st1" d="M740.34,811.88c0,0,8.86-9.81-13.84-10.97c0,0-11.9-7.89-14.01-12.95c0,0-2.12-6-9.57-5.37
		c9.01-27.37-10.82-55.65-38.89-55.65c-22.68,0-41.07,18.87-41.07,42.17c0,30.02,29.72,50.36,56.64,39.01
		C679.61,808.12,714.32,825.31,740.34,811.88z"/>
	<path class="st1" d="M827.93,726.95c0,0-16.58-5.01-19.55-12.11c0,0-2.97-8.4-13.41-7.51c2.8-8.53,3.61-17.11,2.74-25.31
		c50.76-16.11,98.31-60.11,20.68-179.33c0,0-4.45,116.81-55.34,97.22c-50.9-19.6-110.19-25-152.05,44.41
		c-33.08,54.87-66.8-47.02-73.16-75.12c-6.36-28.09-145.64-14.03-145.64-14.03s-34.39,320.38,223.89,265.5
		c0,0,54.84-12.39,92.73-82.92c15.09,10.2,34.76,13.23,53.48,5.34c0,0,51.33,28.88,85.14,5.28
		C847.42,748.38,862.85,730.59,827.93,726.95z"/>
	<path class="st2" d="M398.22,579.33c0,0-17.22,299.61,220.09,230.7c0,0-189.79-56.83-159.68-226.39l-31.97-14.75L398.22,579.33z"/>
	<path class="st3" d="M530.04,639.75c0,0-24.32-1.75-32.47-6.11c-8.14-4.36-35.14-29.04-53.72-7.72
		c-18.57,21.32,12.12,7.94,22.31,9.54c0,0,3.23,48.49,69.6,32.87"/>
	<path class="st4" d="M537.43,631.9c0,0-31.71,6.1-39.86,1.74c-8.14-4.36-35.14-29.04-53.72-7.72
		c-18.57,21.32,12.12,7.94,22.31,9.54c0,0,10.62,54.8,77,39.17l1.95-32.21L537.43,631.9z"/>
	<path class="st1" d="M576.8,371.69c0,0,81.18-45.78,114.91-62.56c0,0,38.29,109.74-40.72,112.93l-57.16,0.61L576.8,371.69z"/>
</g>
<g id="horn_x5F_drgon">
	<path class="st5" d="M444.79,375.25c0,0-45.95-203.93-46.1-227.38c-0.16-23.45-41.01-43.89-33.68,19.13
		c7.32,63.02,10.76,80.59,10.76,80.59s-20.05,2.79-35.99-12.69c-20.96-20.35-57.38,19.42,36.04,65.69c0,0,25.53,23.92,37.74,105.29
		l46.9,6.77L444.79,375.25z"/>
	<path class="st5" d="M542.83,369.28c0,0,110.07-176.18,117.89-198.22c7.83-22.03,53-27.17,25.46,29.65
		c-27.54,56.82-36.54,72.18-36.54,72.18s17.98,9.56,38.05,0.48c26.4-11.93,47.67,38.11-55.46,49.41c0,0-31.88,13.71-70.03,86.13
		l-46.38-9.83L542.83,369.28z"/>
</g>
<path id="head_x5F_drgon" class="st1" d="M417.84,329.56c0,0-95.47,55.68-89.31,126.63c0,0-87.61,51.09,4.68,114.84
	c98.13,67.79,222.72,1.02,230.93-3.93c19.56-11.79,123.33-77.72,22.96-169.42C587.11,397.68,571.79,319.09,417.84,329.56z"/>
<g id="brown_x5F_drgon">
	<path class="st6" d="M463.86,425.79c1.7,3.48-2.01,8.92-8.29,12.17c-6.28,3.24-12.75,3.05-14.46-0.43
		c-1.7-3.47,2.01-8.92,8.29-12.16C455.69,422.13,462.16,422.32,463.86,425.79z"/>
	<path class="st6" d="M351.2,422.07c-2.02,3.29,1.17,9.08,7.13,12.92c5.95,3.84,12.41,4.29,14.43,0.99
		c2.02-3.3-1.17-9.08-7.13-12.92C359.67,419.22,353.22,418.77,351.2,422.07z"/>
</g>
<g id="check_x5F_dragon">
	<path class="st7" d="M467.9,472.9c-9.31,19.44-1.53,42.93,17.4,52.51c18.93,9.56,41.81,1.55,51.14-17.87
		c9.31-19.43,1.51-42.93-17.42-52.5C500.11,445.48,477.23,453.48,467.9,472.9z"/>
	<path class="st7" d="M319.45,468.06c-2.96,6.18-0.48,13.65,5.53,16.69c6.02,3.04,13.29,0.49,16.26-5.68
		c2.96-6.18,0.48-13.65-5.53-16.69C329.69,459.34,322.42,461.88,319.45,468.06z"/>
</g>
<g id="eye_x5F_dragon">
	<g id="eyes_x5F_drgon_x5F_right">
		<g>
			<path class="st8" d="M442.4,453.45l61.88-10.48c0,0,13.08,46.84-28.07,49.79C442.07,495.19,442.4,453.45,442.4,453.45z"/>
		</g>
		<path class="st9" d="M461.85,464.38c0,4.05-1.21,7.34-2.71,7.34s-2.71-3.29-2.71-7.34c0-4.06,1.21-7.35,2.71-7.35
			S461.85,460.32,461.85,464.38z"/>
	</g>
	<g id="eyes_x5F_drgon_x5F_left">
		<path class="st8" d="M337.04,432.74l28.16,21.71c0,0-5.32,26.61-25.19,17.03C320.16,461.88,337.04,432.74,337.04,432.74z"/>
		<path class="st9" d="M342.73,451.06c0,4.06-1.21,7.35-2.71,7.35c-1.5,0-2.71-3.29-2.71-7.35c0-4.05,1.21-7.34,2.71-7.34
			C341.52,443.73,342.73,447.01,342.73,451.06z"/>
	</g>
</g>
<g id="nose_x5F_drgon">
	<g>
		<g>
			<path class="st8" d="M346.59,480.26c5.84-3.16,12.36-4.69,18.93-5.3c6.58-0.59,13.31-0.12,19.82,1.5
				c6.54,1.5,12.79,4.46,18.28,8.37c5.62,3.74,10.07,9.13,13.36,14.87c-5.78-3.33-10.86-6.8-16.53-9.17
				c-5.53-2.53-11.19-4.52-17.04-5.9c-5.83-1.43-11.8-2.49-17.92-3.13C359.36,480.88,353.14,480.51,346.59,480.26z"/>
		</g>
	</g>
	<path class="st8" d="M364.84,493.93c-1.38,5.55-3.42,9.8-4.56,9.5c-1.13-0.3-0.94-5.03,0.45-10.58c1.38-5.55,3.42-9.8,4.56-9.5
		C366.42,483.64,366.22,488.38,364.84,493.93z"/>
	<path class="st8" d="M379.89,498.52c-1.38,5.55-3.43,9.8-4.57,9.5c-1.13-0.3-0.94-5.04,0.45-10.58c1.38-5.55,3.42-9.8,4.56-9.5
		C381.46,488.23,381.27,492.97,379.89,498.52z"/>
	<g>
		<g>
			<path class="st8" d="M373.68,466.48c2.97-1.56,6.01-2.04,9.03-2.19c3.01-0.08,6.02,0.28,8.93,1.15c2.9,0.88,5.73,2.2,8.25,4.13
				c2.47,1.97,4.74,4.48,5.75,7.75c-3.28-0.6-5.9-1.18-8.54-1.78c-2.62-0.61-5.19-1.22-7.75-2.01
				C384.22,471.91,379.09,470.21,373.68,466.48z"/>
		</g>
	</g>
	<g>
		<g>
			<path class="st8" d="M382.27,456.54c1.93-1.84,4.07-2.63,6.22-3.12c2.15-0.42,4.35-0.4,6.5,0.11c2.15,0.51,4.25,1.48,6.07,3
				c1.77,1.57,3.32,3.67,3.6,6.36c-2.64-0.09-4.46-0.18-6.28-0.34c-1.8-0.16-3.5-0.39-5.21-0.82c-1.71-0.41-3.45-0.95-5.24-1.74
				C386.13,459.16,384.3,458.2,382.27,456.54z"/>
		</g>
	</g>
</g>
<g id="beard_x5F_dragon">
	<path class="st10" d="M330.35,490.29c0,0-110.24-4.03-109.38-96.1c0.86-92.08-138.48-117.86-158.03-42.01
		c-17.99,69.88,51.51,78.93,73.9,55.12c19.19-20.44,11.7-65.31-24.54-59.18c-32.77,5.56-23.74,33.28-22.82,36.57"/>
	<path class="st10" d="M474.37,515.06c0,0,90.19,33.96,118.99-40.58c28.78-74.55,149.43-48.3,140.9,19.47
		c-7.87,62.42-66.81,46.27-77.24,19.5c-8.94-22.95,11.47-56.61,38.73-39.43c24.65,15.54,8.49,34.86,6.69,37.2"/>
</g>
<path id="hair_x5F_dragon" class="st11" d="M589.05,447.03c-15.77-21.38-1.79-38.11-1.79-38.11c35.12-97.9-33.82-126.6-63.69-134.27
	c-9.58-18.84,25.13-31.37,41.69-30.58c0,0-54.83-55.57-87.01,20.45c0,0-64.45-14.95-75.63-43.84c0,0-38.54,74.87,40.33,78.33
	c0,0-199.03,70.3-34.02,135.54c0,0,11.48-71.36,60.42-77.82C474,422.66,589.05,447.03,589.05,447.03z"/>
<path id="mouth_x5F_dragon" class="st12" d="M356.74,518.24l69.97,8.95c0,0,8.58,56.74-36.83,50.93
	C344.48,572.3,356.74,518.24,356.74,518.24z"/>
<g id="teeth_x5F_dragon">
	<polygon class="st9" points="412.58,529.44 423.27,530.85 416.09,542.88 	"/>
	<polygon class="st9" points="359.54,522.9 366.87,523.78 361.45,530.16 	"/>
</g>
</svg>
