<?xml version="1.0" encoding="utf-8"?>
<!-- Generator: Adobe Illustrator 23.0.6, SVG Export Plug-In . SVG Version: 6.00 Build 0)  -->
<svg version="1.1" id="hourse" xmlns="http://www.w3.org/2000/svg" xmlns:xlink="http://www.w3.org/1999/xlink" x="0px" y="0px"
	 viewBox="0 0 960 960" style="enable-background:new 0 0 960 960;" xml:space="preserve">
<style type="text/css">
	.st0{fill:#82D1AA;stroke:#8E6642;stroke-width:2;stroke-miterlimit:10;}
	.st1{fill:none;stroke:#8E6642;stroke-width:2;stroke-linecap:round;stroke-linejoin:round;stroke-miterlimit:10;}
	.st2{fill:#B57159;stroke:#8E6642;stroke-width:5;stroke-miterlimit:10;}
	.st3{fill:#EFCBAB;stroke:#8E6642;stroke-width:5;stroke-miterlimit:10;}
	.st4{fill:#B57159;}
	.st5{fill:#FFFDE1;}
	.st6{fill:#FFAEAE;}
	.st7{fill:#8E6642;}
	.st8{fill:#FFFFFF;}
</style>
<path class="st0" d="M700,525.58c0,6.02-7.88,10.89-17.6,10.89s-17.6-4.87-17.6-10.89c0-6.01,7.88-10.89,17.6-10.89
	S700,519.57,700,525.58z"/>
<path class="st0" d="M662.16,525.57c5.68,0.31,10.7-7.75,11.21-18.01s-3.69-18.83-9.37-19.14c-5.68-0.32-10.7,7.75-11.21,18
	C652.28,516.68,656.47,525.26,662.16,525.57z"/>
<path class="st1" d="M628.39,573.26c0,0,1.62-33.69,36.4-47.68"/>
<path class="st2" d="M390.47,704.09c0,0-51.55,70.66-148.58-19.18c0,0-10.3,19.06,14.6,41.74c0,0-113.34,56.27-29.19,127.04
	c0,0-6.59-36.3,10.02-39.93c0,0,54.77,106.44,119.64,15.42c0,0-60.11,14.53-59.25-16.33c0.86-30.85,92.03-16.71,103.55-87.3
	C412.77,654.97,390.47,704.09,390.47,704.09"/>
<path class="st3" d="M552.3,719.85c0,0,28.77,92.56-52.38,104.81l-26.4-28.14v-27.45l9.44-13.78l57.1-47.71L552.3,719.85z"/>
<path class="st3" d="M398.1,715.75c0,0,26.68,88.49,58.03,118.89h43.79l-9.44-107.08L398.1,715.75"/>
<path class="st3" d="M415.35,525.58c0,0-155.71,20.19-40.65,106.09l26.91-15.81L415.35,525.58z"/>
<path class="st3" d="M543.47,530.65c0,0,0.75,0.4,2.12,1.1c9.58,4.89,49.55,24.65,75.85,27.03l6.96,39.02c0,0-48.92,34.49-90.2,8.17
	L543.47,530.65z"/>
<path class="st3" d="M425.94,517.94c0,0-68.34,97.4-41.47,172.42c26.87,75.01,134.53,90.74,170,16.94s-16.28-205.69-16.28-205.69
	L425.94,517.94z"/>
<path class="st3" d="M395.31,279.59c0,0-76.14-98.31-104.47-130.67c0,0-82.15,98,94.17,151.23L395.31,279.59z"/>
<path class="st3" d="M380.89,291.24c0,0-133.26,151.62-28.67,207.32c104.58,55.71,205.43,8,205.43,8s86.96-42.11,68.04-105.06
	C608.2,343.27,503.8,173.2,380.89,291.24z"/>
<path class="st2" d="M604.27,352.52c0,0,49.79-128.59-102.2-186.67c0,0-47.89-19.96-32.1-71.68c0,0-79.32,42.76-34.87,99.82
	c0,0-30.05,0.91-48.09-40.83c0,0-28.34,67.79,31.77,70.19c0,0-181.18,50.5-70.41,143.97c0,0-3.43-29.04,31.77-57.17
	c0,0-31.57,89.43,89.83,77.84c0,0-36.59-53.33,3.77-80.56c0,0,1.72,31.76,66.12,20.87c0,0-52.96-60.49-12.02-54.14
	C564.62,279.85,604.27,352.52,604.27,352.52"/>
<path class="st3" d="M564.28,295.09c0,0,46.27-117.24,64.64-156.84c0,0,105.29,69-49.19,173.42L564.28,295.09z"/>
<line class="st1" x1="371.5" y1="360.42" x2="398.04" y2="381.21"/>
<line class="st1" x1="533.9" y1="355.25" x2="507.35" y2="376.04"/>
<path class="st1" d="M390.19,589.02c0,0,4.54-6.87-22.93-10.39"/>
<path class="st1" d="M502.16,761.29c0,0,14.61,0.91,21.85,19.88"/>
<path class="st4" d="M459.24,828.01h33.41l-4.39-28.15H442.1C442.1,799.86,455.66,826.49,459.24,828.01z"/>
<path class="st5" d="M581.5,460.33c0,28.49-53.35,51.59-119.15,51.59s-119.14-23.1-119.14-51.59s53.34-51.59,119.14-51.59
	C528.16,408.74,581.5,431.84,581.5,460.33z"/>
<path class="st4" d="M613.88,566.75l4.92,26.53c0,0-14.22,8.2-18.23,8.2l-2.16-38.03C598.42,563.44,610.16,566.75,613.88,566.75z"/>
<line class="st1" x1="495.78" y1="429.63" x2="489.19" y2="435.68"/>
<line class="st1" x1="418.21" y1="435.68" x2="425.94" y2="441.42"/>
<path class="st1" d="M483.47,485.89c0,0,40.54,4.23,49.47-42.95"/>
<g>
	<path class="st6" d="M343.25,406.49c-5.25,11.28-0.86,24.92,9.81,30.48c10.67,5.55,23.58,0.9,28.84-10.37
		c5.25-11.28,0.85-24.92-9.82-30.48C361.42,390.57,348.51,395.22,343.25,406.49z"/>
	<g>
		<path class="st7" d="M391.69,391.17c0,11.78-9.05,21.34-20.19,21.34c-11.15,0-20.2-9.55-20.2-21.34c0-11.8,9.04-21.34,20.2-21.34
			C382.64,369.82,391.69,379.37,391.69,391.17z"/>
		<path class="st8" d="M384.12,384.73c0,3.08-2.36,5.57-5.27,5.57s-5.26-2.49-5.26-5.57c0-3.07,2.36-5.56,5.26-5.56
			C381.76,379.17,384.12,381.66,384.12,384.73z"/>
	</g>
</g>
<g>
	<path class="st6" d="M574.1,398.68c5.25,11.28,0.86,24.92-9.81,30.48c-10.67,5.55-23.58,0.9-28.84-10.37
		c-5.25-11.28-0.86-24.92,9.82-30.48C555.94,382.77,568.85,387.41,574.1,398.68z"/>
	<g>
		<path class="st7" d="M525.67,383.36c0,11.78,9.04,21.34,20.19,21.34s20.19-9.55,20.19-21.34s-9.04-21.34-20.19-21.34
			C534.71,362.02,525.67,371.57,525.67,383.36z"/>
		<path class="st8" d="M533.23,376.92c0,3.08,2.36,5.57,5.27,5.57c2.91,0,5.27-2.49,5.27-5.57c0-3.07-2.36-5.56-5.27-5.56
			C535.6,371.36,533.23,373.85,533.23,376.92z"/>
	</g>
</g>
</svg>
