<?xml version="1.0" encoding="utf-8"?>
<!-- Generator: Adobe Illustrator 23.0.6, SVG Export Plug-In . SVG Version: 6.00 Build 0)  -->
<svg version="1.1" id="monkey" xmlns="http://www.w3.org/2000/svg" xmlns:xlink="http://www.w3.org/1999/xlink" x="0px" y="0px"
	 viewBox="0 0 960 960" style="enable-background:new 0 0 960 960;" xml:space="preserve">
<style type="text/css">
	.st0{fill:none;stroke:#8E6642;stroke-width:4;stroke-linecap:round;stroke-linejoin:round;stroke-miterlimit:10;}
	.st1{fill:#E2C488;stroke:#8E6642;stroke-width:5;stroke-miterlimit:10;}
	.st2{fill:none;stroke:#8E6642;stroke-width:2;stroke-linecap:round;stroke-linejoin:round;stroke-miterlimit:10;}
	.st3{fill:#FFE266;stroke:#8E6642;stroke-width:4;stroke-linecap:round;stroke-linejoin:round;stroke-miterlimit:10;}
	.st4{fill:#FFEDD7;}
	.st5{fill:#FFF6E3;stroke:#8E6642;stroke-width:5;stroke-miterlimit:10;}
	.st6{fill:#FF9999;stroke:#8E6642;stroke-width:3;stroke-miterlimit:10;}
	.st7{fill:#FFAEAE;}
	.st8{fill:#8E6642;}
	.st9{fill:#FFFFFF;}
</style>
<path class="st0" d="M407.6,710.37c0,0-89.27,63.37-140.39-11.17c-51.12-74.54-175.61-11.09-148.36,61.7
	c25.11,67.04,85.06,32.33,89.33-0.34c3.66-28.01-27.51-59.57-52.65-32.74c-22.74,24.26-0.01,41.09,2.57,43.18"/>
<path class="st1" d="M436.96,489.84l-84.9,53.95c0,0,13.06,45.75,49.63,64.88h57.47v-62.82l37.88-40.3L436.96,489.84z"/>
<path class="st1" d="M600.22,505.55c0,0,82.94,71.71,114.94,74.44l-22.86,22.54c0,0-56.46-1.37-79.49-19.8
	C589.78,564.28,600.22,505.55,600.22,505.55z"/>
<polygon class="st1" points="606.75,688.58 683.16,799.21 644.96,799.21 542.46,725.37 597.61,676.97 "/>
<path class="st1" d="M568.7,461.34c0,0,141.43,207.3-38.82,268.76c0,0-20.76,29.84-11.94,44.18c8.82,14.35,51.59,71.71,51.59,71.71
	h-45.71c0,0-126.37-72.74-138.12-145.47c-11.76-72.74,52.24-119.18,56.96-146.49c0,0,12.31-46.02,4.12-72.19c-8.19-26.16,0,0,0,0
	S548.94,439.34,568.7,461.34"/>
<path class="st2" d="M430.1,561.55c0,0-10.78-16.05-38.54-12.29"/>
<polygon class="st3" points="424.55,490.98 534.77,545.85 584.1,461.67 525.08,446.82 451.02,452.08 "/>
<path class="st1" d="M337.69,330.71c0,52.81-40.94,95.62-91.43,95.62c-50.5,0-91.43-42.81-91.43-95.62
	c0-52.8,40.93-95.61,91.43-95.61C296.75,235.1,337.69,277.91,337.69,330.71z"/>
<ellipse class="st4" cx="256.39" cy="336.73" rx="67.59" ry="70.68"/>
<path class="st1" d="M586.42,222.91c11.23,51.48,60.26,83.69,109.49,71.94c49.23-11.75,80.02-63.02,68.78-114.5
	c-11.24-51.48-60.26-83.69-109.49-71.94C605.97,120.17,575.17,171.43,586.42,222.91z"/>
<path class="st4" d="M601.07,225.59c8.31,38.06,44.55,61.86,80.94,53.18c36.39-8.69,59.16-46.59,50.85-84.64
	c-8.31-38.06-44.54-61.87-80.94-53.18C615.53,149.65,592.76,187.53,601.07,225.59z"/>
<path class="st1" d="M670.66,312.84c-16.64-44.22-87.22-139.66-170.32-151.86l0,0c-3.88-0.36-1.67-0.42-8.37-0.93
	c-25.94-3.3-105.73-16.96-141.97-62.92c0,0,6.77,66.98,47.49,83.46c0,0-45.88,13.91-86.91,1.39c0,0,2.49,31.68,55.44,48.74
	c-25.84,41.03-110.54,190.76-0.18,233.34c128.31,49.51,239.22-20.04,239.22-20.04S697.52,384.21,670.66,312.84z"/>
<path class="st5" d="M365.12,449.54c0,0-54.43-49.28,9.24-69.77c0,0-29.81-196.58,99.5-137.17c0,0,73.47-106.54,138.13,88.1
	c0,0,74.7,4.44,45.77,61.27C657.75,391.98,538.67,538.67,365.12,449.54z"/>
<path class="st6" d="M470.37,369.88c0,0-25.9,8.98-12.19,22.64c13.72,13.66,30.26-7.86,32.93-18.09
	C491.11,374.43,476.34,372.51,470.37,369.88"/>
<path class="st2" d="M528.66,359.74c0,0-22.15,21.38-61.4,7.01"/>
<path class="st2" d="M491.11,330.44c0,0,5.28,18.71,2.67,26.9"/>
<line class="st2" x1="532.63" y1="264.64" x2="523.82" y2="291.32"/>
<line class="st2" x1="428.33" y1="281.53" x2="446.78" y2="297.27"/>
<path class="st7" d="M601.95,338.45c6.62,14.07,1.08,31.08-12.37,38.01c-13.45,6.94-29.73,1.13-36.36-12.94
	c-6.62-14.07-1.08-31.08,12.38-38.02C579.05,318.59,595.32,324.38,601.95,338.45z"/>
<g>
	<path class="st7" d="M392.57,373.39c-6.43,13.68-1.06,30.22,12.03,36.95c13.07,6.74,28.89,1.1,35.34-12.58
		c6.44-13.68,1.06-30.21-12.02-36.95C414.83,354.08,399.02,359.71,392.57,373.39z"/>
	<g>
		<path class="st8" d="M456.4,336.73c0,16.21-12.56,29.35-28.06,29.35c-15.5,0-28.07-13.14-28.07-29.35s12.57-29.35,28.07-29.35
			C443.83,307.39,456.4,320.52,456.4,336.73z"/>
		<path class="st9" d="M446.78,326.67c0,4.24-3.28,7.67-7.32,7.67c-4.05,0-7.32-3.43-7.32-7.67c0-4.23,3.27-7.65,7.32-7.65
			C443.5,319.02,446.78,322.44,446.78,326.67z"/>
	</g>
</g>
<path class="st2" d="M572.96,294.08c0,0-28.61,9.56-34.28,36.37c0,0,8.3-13.61,42.12,0"/>
<g>
	<g>
		<g>
			<path class="st8" d="M481.7,322.52c0,0,8.27-7.09,18.27-1.04c10.95,6.62-8.79,12.84-8.79,12.84S472.74,329.53,481.7,322.52z"/>
		</g>
	</g>
</g>
<g>
	<path class="st8" d="M467.26,319.04c2.02-3.53,5.17-6.3,8.69-8.27c3.53-2.01,7.52-3.15,11.55-3.48c4.03-0.14,8.09,0.3,11.84,1.69
		c1.91,0.55,3.65,1.6,5.42,2.43c1.69,1.05,3.32,2.19,4.85,3.43c-1.95-0.37-3.76-0.95-5.59-1.41c-1.86-0.32-3.64-0.89-5.47-1.11
		c-3.62-0.64-7.22-0.81-10.78-0.64c-3.57,0.21-7.06,1.02-10.5,2.22C473.85,315.13,470.51,316.81,467.26,319.04z"/>
</g>
</svg>
