<?xml version="1.0" encoding="utf-8"?>
<!-- Generator: Adobe Illustrator 23.0.6, SVG Export Plug-In . SVG Version: 6.00 Build 0)  -->
<svg version="1.1" id="mouse" xmlns="http://www.w3.org/2000/svg" xmlns:xlink="http://www.w3.org/1999/xlink" x="0px" y="0px"
	 viewBox="0 0 960 960" style="enable-background:new 0 0 960 960;" xml:space="preserve">
<style type="text/css">
	.st0{fill:#D3D3D3;stroke:#8E6642;stroke-width:4;stroke-miterlimit:10;}
	.st1{fill:none;stroke:#8E6642;stroke-width:4;stroke-linecap:round;stroke-linejoin:round;stroke-miterlimit:10;}
	.st2{fill:#D3D3D3;stroke:#8E6642;stroke-width:5;stroke-miterlimit:10;}
	.st3{fill:#FFC878;}
	.st4{fill:none;stroke:#8E6642;stroke-width:3;stroke-miterlimit:10;}
	.st5{fill:#FFFF97;}
	.st6{fill:#FFFFFF;stroke:#8E6642;stroke-width:3;stroke-miterlimit:10;}
	.st7{fill:#FFEDD7;}
	.st8{fill:#8E6642;}
	.st9{fill:none;stroke:#8E6642;stroke-width:3;stroke-linecap:round;stroke-linejoin:round;stroke-miterlimit:10;}
	.st10{fill:#FFFFFF;stroke:#8E6642;stroke-width:2;stroke-miterlimit:10;}
	.st11{fill:#FFAEAE;}
	.st12{fill:#FFFFFF;}
</style>
<path class="st0" d="M385.05,533.09c0,0-41.32,56.81-41.32,88.14c0,0,2.54,15.9,17.82,2.67c15.28-13.23,33.74-50.47,53.47-47.37
	L385.05,533.09z"/>
<path class="st1" d="M591.83,627.2c0,0,85.2,33.51,110.53-45.91c25.33-79.42,138.87-54.86,132.37,16.88
	c-6,66.09-61.56,50.56-71.9,22.59c-8.88-23.99,9.5-60.05,35.41-42.62c23.42,15.76,8.71,36.56,7.08,39.08"/>
<path class="st0" d="M636.11,659.56c-0.01,0.01-0.01,0.01-0.01,0.02c-1.1-3.38-2.47-6.69-4.16-9.89
	c-14.37-27.11-45.01-35.61-68.43-18.99c-23.43,16.62-30.77,52.08-16.41,79.19c14.36,27.11,45,35.61,68.43,18.98
	c5.37-3.81,9.86-8.65,13.48-14.13c1.97,10.27,7.03,24.49,18.83,42.68c0,0,13.67,16.7,7.67-20.59c-0.07-0.48-0.16-0.98-0.24-1.48
	c-6.6-39.21-4.26-48.49-4.07-66.18C651.38,651.49,642.98,651.52,636.11,659.56z"/>
<path class="st2" d="M609.01,648.42c0,0,32.75,163.33-151.43,160.14c0,15.67-8.43,24.01-22.32,7.16
	c-14.18-17.21-19.48-28.67-57.66-59.18c-0.49-0.39-0.97-0.78-1.44-1.15c-36.04-29.33-9.33-28.14-9.33-28.14
	c26.06,4.66,42.46,12.79,52.69,20.51c-0.96-9.17-0.52-18.69,1.54-28.18c3.1-14.26,9.5-26.53,17.94-36.14
	c-66.93-92.53-46.23-157.28-48.71-180.6h118.42c0,0,24.51,52.94,39.22,60.51C597.08,588.6,602.33,623.59,609.01,648.42z"/>
<g>
	<g>
		<g>
			<path class="st3" d="M309.88,641.75c-0.55-1.75,0.49-3.37,2.31-3.59l125.53-15.69c1.82-0.23,2.97,1.05,2.57,2.84l-7.58,33.19
				c-0.41,1.79-2.24,3.4-4.06,3.57l-105.72,10.3c-1.82,0.18-3.77-1.11-4.32-2.86L309.88,641.75z"/>
			<path class="st4" d="M309.88,641.75c-0.55-1.75,0.49-3.37,2.31-3.59l125.53-15.69c1.82-0.23,2.97,1.05,2.57,2.84l-7.58,33.19
				c-0.41,1.79-2.24,3.4-4.06,3.57l-105.72,10.3c-1.82,0.18-3.77-1.11-4.32-2.86L309.88,641.75z"/>
		</g>
		<g>
			<path class="st5" d="M310.05,647.4c-1.81,0.22-2.23-0.65-0.94-1.94l72.15-71.42c1.3-1.28,3.85-2.24,5.67-2.12
				c0,0,59.54,3.92,52.05,59.85L310.05,647.4z"/>
			<path class="st4" d="M310.05,647.4c-1.81,0.22-2.23-0.65-0.94-1.94l72.15-71.42c1.3-1.28,3.85-2.24,5.67-2.12
				c0,0,59.54,3.92,52.05,59.85L310.05,647.4z"/>
		</g>
	</g>
	<path class="st6" d="M314.51,644.63"/>
	<path class="st3" d="M391.21,591.58c1.05,2.16-2.09,6.5-7.02,9.69c-4.92,3.19-9.76,4.02-10.81,1.86c-1.05-2.17,2.09-6.5,7.02-9.69
		C385.32,590.24,390.16,589.41,391.21,591.58z"/>
	<path class="st3" d="M363.87,616.28c1.04,2.16-2.1,6.5-7.02,9.69c-4.92,3.19-9.76,4.02-10.81,1.86c-1.04-2.17,2.1-6.51,7.02-9.69
		C357.98,614.95,362.82,614.12,363.87,616.28z"/>
	<path class="st3" d="M411.41,590.38c1.26,2.01-1.4,6.75-5.96,10.6c-4.56,3.85-9.28,5.34-10.54,3.34c-1.26-2,1.41-6.75,5.97-10.6
		C405.42,589.87,410.14,588.38,411.41,590.38z"/>
	<path class="st3" d="M407.51,613.73c0.86,2.27-2.63,6.24-7.8,8.85c-5.17,2.61-10.05,2.89-10.91,0.62c-0.86-2.27,2.63-6.24,7.8-8.85
		C401.77,611.74,406.65,611.46,407.51,613.73z"/>
	<path class="st5" d="M348.87,654.27c0.51,1.61-2.05,4.18-5.72,5.73c-3.67,1.55-7.05,1.5-7.56-0.11c-0.51-1.61,2.05-4.18,5.72-5.73
		C344.98,652.61,348.36,652.66,348.87,654.27z"/>
	<path class="st5" d="M379.31,651.59c0.51,1.61-2.05,4.18-5.72,5.73c-3.66,1.55-7.05,1.5-7.56-0.11c-0.5-1.61,2.05-4.18,5.72-5.73
		C375.41,649.93,378.8,649.98,379.31,651.59z"/>
	<path class="st5" d="M411.04,647.54c0.51,1.61-2.05,4.18-5.72,5.73c-3.67,1.55-7.06,1.5-7.56-0.11c-0.51-1.61,2.05-4.18,5.72-5.73
		C407.14,645.88,410.52,645.93,411.04,647.54z"/>
</g>
<path class="st1" d="M484.26,549.12c0,0-9.5,60.43-40.53,68.81c-31.03,8.38,18.7,35.04,54.48-21.09"/>
<path class="st2" d="M405.62,251.02c0,63.18-44.27,114.4-98.87,114.4c-54.6,0-98.87-51.22-98.87-114.4
	c0-63.18,44.27-114.4,98.87-114.4C361.36,136.62,405.62,187.84,405.62,251.02z"/>
<path class="st2" d="M603.39,112c-54.6,0-106.51,51.84-98.87,114.4c1.69,13.83,5.54,26.29,9.36,38.48
	c-45.74-32.79-106.49-40.5-162.33,27.1c0,0-119.29,171.44-12.53,220.61c106.76,49.16,202.09-10.09,202.09-10.09
	s79.53-51.06,58.83-116.61c-4.11-13.02-12.92-35.33-25.06-54.21c63.44,21.93,127.36-28.79,127.36-105.29
	C702.26,163.22,658,112,603.39,112z"/>
<path class="st7" d="M670.29,232.88c0,45.94-32.19,83.2-71.9,83.2c-39.71,0-71.9-37.25-71.9-83.2c0-45.95,32.19-83.2,71.9-83.2
	C638.1,149.68,670.29,186.92,670.29,232.88z"/>
<g>
	<path class="st8" d="M386.97,384.03c0,0,7.84-6.64,16.62,0c9.62,7.28-8.58,12.38-8.58,12.38S378.51,390.55,386.97,384.03z"/>
	<path class="st9" d="M394.29,393.89c0,0,0.58,9.77,2.76,13.55c2.18,3.78,12.53,11.03,19.34-3.47"/>
	<path class="st9" d="M397.05,407.44c0,0-4.36,13.24-17.97,0"/>
	<path class="st10" d="M388.77,414.38c0,0,7.05,17.49,13.18,22.93c0,0,2.66,2.13,7.15,0c0,0,0-20.4,0-24.67
		c0,0-7.83,0.65-11.47-4.36C397.63,408.27,391.84,416.12,388.77,414.38z"/>
</g>
<path class="st9" d="M459.96,681.51c0,0,45.49-43.49,90.42,17.97"/>
<g>
	<path class="st8" d="M525.11,424.28c14.96-4.93,30.51-7.29,46.08-8.26c15.59-0.96,31.29-0.05,46.83,2.42
		c15.52,2.67,30.8,7.55,45.32,14.48c14.52,7.02,27.84,17.11,39.35,29.12c-13.41-9.15-26.99-17.16-41.45-22.82
		c-1.75-0.86-3.61-1.38-5.44-1.99l-5.47-1.89l-5.45-1.9l-5.57-1.43c-3.72-0.89-7.38-2.13-11.13-2.86l-11.26-2.16
		c-15.07-2.57-30.32-3.83-45.63-4.25C555.96,422.44,540.58,422.88,525.11,424.28z"/>
</g>
<g>
	<g>
		<path class="st8" d="M525.11,441.36c15.56-0.18,31.09,2.29,46.34,6.1c15.26,3.83,30.19,9.5,44.62,16.64
			c14.36,7.32,27.98,16.68,40.41,27.8c12.4,11.2,22.96,25,31.32,40.1c-10.85-12.92-22.12-24.8-34.78-34.67
			c-1.49-1.36-3.17-2.43-4.79-3.58l-4.84-3.49l-4.83-3.49l-5.05-3.08c-3.39-2-6.63-4.3-10.08-6.16l-10.37-5.52
			c-13.95-7.08-28.37-12.95-43.05-18.03C555.29,449.01,540.35,444.74,525.11,441.36z"/>
	</g>
</g>
<path class="st11" d="M470.91,391.53c-8.65,20.36-1.42,44.96,16.16,54.97c17.58,10.02,38.85,1.64,47.52-18.7
	c8.65-20.35,1.41-44.96-16.18-54.97C500.83,362.81,479.56,371.18,470.91,391.53z"/>
<path class="st11" d="M312.05,405.38c-6.62,15.59-1.08,34.44,12.38,42.11c13.47,7.67,29.76,1.25,36.4-14.33
	c6.63-15.59,1.08-34.43-12.39-42.1C334.98,383.38,318.69,389.8,312.05,405.38z"/>
<g>
	<path class="st8" d="M495.88,380.17c0,16.29-11.41,29.49-25.49,29.49c-14.07,0-25.49-13.2-25.49-29.49
		c0-16.29,11.41-29.49,25.49-29.49C484.47,350.68,495.88,363.88,495.88,380.17z"/>
	<path class="st12" d="M470.39,370.1c0,3.6-2.52,6.51-5.62,6.51c-3.11,0-5.63-2.91-5.63-6.51c0-3.59,2.52-6.51,5.63-6.51
		C467.87,363.59,470.39,366.51,470.39,370.1z"/>
</g>
<g>
	<path class="st8" d="M373.18,384.2c0,16.29-11.41,29.49-25.49,29.49c-14.08,0-25.49-13.2-25.49-29.49
		c0-16.29,11.41-29.49,25.49-29.49C361.77,354.71,373.18,367.92,373.18,384.2z"/>
	<path class="st12" d="M347.7,374.13c0,3.59-2.52,6.51-5.63,6.51c-3.11,0-5.62-2.91-5.62-6.51s2.52-6.51,5.62-6.51
		C345.18,367.62,347.7,370.54,347.7,374.13z"/>
</g>
<g>
	<path class="st8" d="M331.4,424.28c-15.47-1.4-30.85-1.84-46.18-1.54c-15.32,0.42-30.57,1.68-45.63,4.25l-11.26,2.16
		c-3.75,0.73-7.4,1.97-11.13,2.86l-5.57,1.43l-5.45,1.9l-5.47,1.89c-1.83,0.61-3.69,1.13-5.44,1.99
		c-14.46,5.66-28.03,13.68-41.45,22.82c11.51-12.01,24.84-22.1,39.36-29.12c14.52-6.93,29.79-11.8,45.31-14.48
		c15.54-2.48,31.23-3.39,46.83-2.42C300.89,416.99,316.44,419.35,331.4,424.28z"/>
</g>
<g>
	<g>
		<path class="st8" d="M331.4,441.36c-15.24,3.38-30.18,7.64-44.89,12.61c-14.68,5.08-29.1,10.95-43.05,18.03l-10.37,5.52
			c-3.45,1.85-6.69,4.16-10.08,6.16l-5.05,3.08l-4.83,3.49l-4.84,3.49c-1.62,1.15-3.3,2.22-4.79,3.58
			c-12.66,9.87-23.92,21.75-34.78,34.67c8.36-15.1,18.92-28.9,31.32-40.1c12.43-11.12,26.04-20.48,40.41-27.8
			c14.42-7.13,29.35-12.8,44.62-16.64C300.31,443.65,315.85,441.18,331.4,441.36z"/>
	</g>
</g>
</svg>
