<?xml version="1.0" encoding="utf-8"?>
<!-- Generator: Adobe Illustrator 23.0.6, SVG Export Plug-In . SVG Version: 6.00 Build 0)  -->
<svg version="1.1" id="pig" xmlns="http://www.w3.org/2000/svg" xmlns:xlink="http://www.w3.org/1999/xlink" x="0px" y="0px"
	 viewBox="0 0 960 960" style="enable-background:new 0 0 960 960;" xml:space="preserve">
<style type="text/css">
	.st0{fill:#8E6642;}
	.st1{fill:#FFE9DE;stroke:#8E6642;stroke-width:5;stroke-miterlimit:10;}
	.st2{fill:#FFAEAE;}
	.st3{fill:#FFFFFF;}
	.st4{fill:none;stroke:#8E6642;stroke-width:4;stroke-linecap:round;stroke-linejoin:round;stroke-miterlimit:10;}
	.st5{fill:none;stroke:#8E6642;stroke-width:3;stroke-linecap:round;stroke-miterlimit:10;}
	.st6{fill:#FF7676;stroke:#8E6642;stroke-width:3;stroke-miterlimit:10;}
	.st7{fill:#82D1AA;stroke:#8E6642;stroke-width:2;stroke-miterlimit:10;}
</style>
<g>
	<g>
		<path class="st0" d="M360.06,718.38c-18.5-25.37-50.6-34.54-78.01-30.22c-13.65,2.03-26.28,8.55-31.2,17.73
			c-1.02,2.06-2.41,5.38-3.15,8.21c-0.8,2.88-1.19,5.71-1.04,7.84c0.16,2.2,0.7,3.2,1.02,3.47c0.26,0.32,1.23,0.97,3.52,1.32
			c2.11,0.33,5.58,0.35,8.14,0.08c2.64-0.33,4.83-1.07,6.35-1.97c1.55-0.9,2.39-1.92,3.04-3.21c0.68-1.27,0.78-3.05,0.51-4.96
			c-0.54-3.94-3.6-7.93-7.92-10.33c-4.38-2.39-10.29-3.34-16.65-2.49c-6.68,0.89-14.14,2.74-20.99,5.02
			c-6.97,2.26-13.74,5.18-19.99,8.91c-12.75,7.11-23.35,18.04-29.04,32.57c0.24-7.74,2.49-15.59,6.39-22.74
			c3.88-7.18,9.45-13.48,15.64-18.99c6.34-5.37,13.38-9.89,20.77-13.71c3.7-1.92,7.55-3.54,11.45-5.05
			c3.99-1.5,7.72-2.83,12.27-3.85c8.93-2.22,19.52-2.15,29.3,2.12c9.73,4.21,17.98,12.93,20.61,24.04
			c1.27,5.52,1.19,11.71-1.15,17.52c-2.24,5.79-6.62,10.95-11.73,14.09c-5.12,3.18-10.59,4.75-15.7,5.47
			c-5.21,0.56-9.66,0.76-15.29-0.11c-5.37-0.88-12.12-3.31-17.03-8.84c-4.94-5.49-6.54-12.32-6.57-17.69
			c-0.07-5.51,0.98-10.27,2.35-14.7c1.43-4.49,3.04-8.26,5.81-12.88c5.51-8.65,13.7-14.82,22.2-18.56
			c8.54-3.81,17.45-5.55,26.2-6.01c17.5-0.86,34.61,3.49,49.15,11.73C343.8,690.48,355.38,703.55,360.06,718.38z"/>
	</g>
</g>
<path class="st1" d="M365.15,755.75c0,0,53.37,118.28,90.53,143.25h35.12V770.86l-104.04-28.25L365.15,755.75z"/>
<path class="st1" d="M647.49,749.43c0,0-53.37,124.6-90.52,149.57h-35.13V770.86l104.05-28.25L647.49,749.43z"/>
<path class="st1" d="M571.21,422.6c-105.4-107.77-171.66,23.22-171.66,23.22s-160.74,282.99,8.16,328.99
	c0,0,117.56,39.43,224.98-18.73C740.11,697.92,571.21,422.6,571.21,422.6z"/>
<path class="st1" d="M538.69,187.57c0,0,91.88-114.34,113.5-122.22c21.62-7.89,43.85,162.42,16.52,225.12
	c-27.33,62.7-103-39.81-103-39.81L538.69,187.57z"/>
<path class="st1" d="M431.4,205.97c0,0-91.88-114.34-113.5-122.23c-21.62-7.88-43.85,162.42-16.52,225.12
	c27.33,62.7,103-39.81,103-39.81L431.4,205.97z"/>
<path class="st1" d="M390.5,213.65c0,0-162.31,166.52-34.58,228.01c127.73,61.49,250.7,9.22,250.7,9.22s102.73-45.31,82.83-115.44
	C671,270.5,540.25,84.03,390.5,213.65z"/>
<g>
	<path class="st2" d="M343.21,341.78c-6.65,13.16-1.09,29.07,12.44,35.54c13.53,6.49,29.89,1.07,36.56-12.09
		c6.66-13.16,1.09-29.07-12.45-35.56C366.25,323.2,349.88,328.62,343.21,341.78z"/>
	<g>
		<path class="st0" d="M409.24,306.51c0,15.6-13,28.24-29.03,28.24c-16.03,0-29.03-12.64-29.03-28.24c0-15.6,13-28.23,29.03-28.23
			C396.25,278.27,409.24,290.91,409.24,306.51z"/>
		<path class="st3" d="M399.29,296.83c0,4.07-3.39,7.37-7.57,7.37c-4.19,0-7.58-3.3-7.58-7.37c0-4.08,3.39-7.36,7.58-7.36
			C395.9,289.46,399.29,292.75,399.29,296.83z"/>
	</g>
</g>
<g>
	<path class="st2" d="M655.05,341.78c6.66,13.16,1.09,29.07-12.44,35.54c-13.53,6.49-29.89,1.07-36.56-12.09
		c-6.66-13.16-1.09-29.07,12.44-35.56C632.02,323.2,648.39,328.62,655.05,341.78z"/>
	<g>
		<path class="st0" d="M589.02,306.51c0,15.6,13,28.24,29.04,28.24c16.03,0,29.03-12.64,29.03-28.24c0-15.6-13-28.23-29.03-28.23
			C602.02,278.27,589.02,290.91,589.02,306.51z"/>
		<path class="st3" d="M598.98,296.83c0,4.07,3.39,7.37,7.57,7.37c4.19,0,7.58-3.3,7.58-7.37c0-4.08-3.38-7.36-7.58-7.36
			C602.37,289.46,598.98,292.75,598.98,296.83z"/>
	</g>
</g>
<path class="st1" d="M582.55,342.15c0,30.21-37.2,54.7-83.09,54.7c-45.9,0-83.1-24.49-83.1-54.7c0-30.21,37.2-54.7,83.1-54.7
	C545.35,287.45,582.55,311.94,582.55,342.15z"/>
<path class="st0" d="M473.83,341.05c0,11.5-1.82,20.81-4.05,20.81c-2.24,0-4.06-9.32-4.06-20.81c0-11.49,1.82-20.81,4.06-20.81
	C472.02,320.23,473.83,329.55,473.83,341.05z"/>
<path class="st0" d="M523.49,341.05c0,11.5-1.81,20.81-4.05,20.81s-4.05-9.32-4.05-20.81c0-11.49,1.81-20.81,4.05-20.81
	S523.49,329.55,523.49,341.05z"/>
<polyline class="st4" points="385.47,527.95 468.57,635.72 451.06,652.8 364.15,598.92 "/>
<polyline class="st4" points="598.48,533.21 515.38,640.98 532.9,658.06 619.81,604.18 "/>
<g>
	<path class="st5" d="M490.31,551.73c0,0-31.76-20.35-20.27-45.31"/>
	<path class="st6" d="M555.89,606.62c0,30.31-25.26,54.88-56.43,54.88c-31.16,0-56.43-24.57-56.43-54.88
		c0-30.31,25.27-54.89,56.43-54.89C530.63,551.73,555.89,576.31,555.89,606.62z"/>
	<path class="st7" d="M523.82,543.78c-11.07,10.99-24.85,15.31-30.8,9.65c-5.94-5.66-1.8-19.15,9.26-30.15
		c11.07-10.99,24.86-15.3,30.8-9.64C539.03,519.3,534.89,532.79,523.82,543.78z"/>
</g>
</svg>
