<?xml version="1.0" encoding="utf-8"?>
<!-- Generator: Adobe Illustrator 23.0.6, SVG Export Plug-In . SVG Version: 6.00 Build 0)  -->
<svg version="1.1" id="tiher" xmlns="http://www.w3.org/2000/svg" xmlns:xlink="http://www.w3.org/1999/xlink" x="0px" y="0px"
	 viewBox="0 0 960 960" style="enable-background:new 0 0 960 960;" xml:space="preserve">
<style type="text/css">
	.st0{fill:#FFFFFF;stroke:#8E6642;stroke-width:5;stroke-miterlimit:10;}
	.st1{fill:none;stroke:#8E6642;stroke-width:5;stroke-linecap:round;stroke-linejoin:round;stroke-miterlimit:10;}
	.st2{fill:none;stroke:#8E6642;stroke-width:3;stroke-linecap:round;stroke-linejoin:round;stroke-miterlimit:10;}
	.st3{fill:#FFAEAE;}
	.st4{fill:#8E6642;}
	.st5{fill:#FFFFFF;}
	.st6{fill:#FF9999;stroke:#8E6642;stroke-width:3;stroke-miterlimit:10;}
	.st7{fill:#FF9999;}
</style>
<g id="body_x5F_rabbit">
	<path class="st0" d="M413.39,589.68c0,0-96.37-64.46-119.62-47.71c-22.09,15.92,108.74,82.67,108.74,82.67L413.39,589.68z"/>
	<path class="st0" d="M725.96,743.91c0,34.91-29.14,63.21-65.09,63.21c-35.95,0-65.09-28.3-65.09-63.21
		c0-34.91,29.14-63.21,65.09-63.21C696.82,680.7,725.96,708.99,725.96,743.91z"/>
	<path class="st0" d="M519.4,808.15c0,0,37.94,80.18,71.3,64.83c0,0,6.25-3.43,4.88-14.02c-1.36-10.61-36.96-71.84-40.94-81.01
		c-3.36-7.74-28.05-25.21-38.83,3.97C515.82,781.92,511.36,790.08,519.4,808.15z"/>
	<path class="st0" d="M693.5,657.05c0-36.4-30.39-65.91-67.87-65.91c-20.7,0-39.22,9.01-51.67,23.21c-2.83-0.6-4.52-0.87-4.52-0.87
		s-59.63-42.73-35.28-78.66l-123.5,3.96c0,0-53.3,151.37,6.93,222.02c1.62,36.56,36.15,65.77,78.54,65.77
		c30.23,0,56.47-14.87,69.62-36.67c8.37-2.13,58.25-16.85,78.32-69.43C672.59,712.67,693.5,687.25,693.5,657.05z"/>
	<path class="st1" d="M489.92,581.92c0,0-29.5,55.05,6.5,85.64c0,0,14.5,15.54,15-4.37c0.5-19.91,5.5-40.3,20-49.53"/>
	<path class="st0" d="M639.16,628.63c0,0,54.55-70.57,83.81-48.71c0,0,5.36,4.64,1.72,14.72c-3.65,10.08-51.77,62.61-57.66,70.76
		c-4.97,6.88-32.9,18.88-37.08-11.86C629.94,653.53,627.37,644.64,639.16,628.63z"/>
</g>
<path id="head_x5F_rabbit" class="st0" d="M522.14,341.5c0,0,15.38-267.48,241.86-305.36c0,0-17.01,182.03-215.43,319.56
	c41.72,29.71,68.84,75.81,75.99,100.95c15.38,54.12-64.01,89.08-64.01,89.08s-95.03,40.34-193.73-7.11
	c-80.54-38.71-11.87-131.37,16.15-164.18C178.45,236.36,159.14,53.05,159.14,53.05s233.07,69.99,246.99,301.91
	C406.14,354.96,457.87,322.44,522.14,341.5z"/>
<g id="face_x5F_rabbit">
	<path class="st2" d="M498.32,642.77"/>
	<g>
		<g>
			<path class="st3" d="M369.43,452c-6.08,12.01-1,26.53,11.37,32.44c12.36,5.91,27.31,0.97,33.41-11.04
				c6.09-12.01,0.99-26.53-11.37-32.43C390.47,435.05,375.52,439.99,369.43,452z"/>
			<g>
				<path class="st4" d="M425.54,435.68c0,12.55-10.48,22.72-23.4,22.72c-12.92,0-23.4-10.18-23.4-22.72s10.47-22.72,23.4-22.72
					C415.06,412.96,425.54,423.13,425.54,435.68z"/>
				<path class="st5" d="M416.77,428.84c0,3.27-2.73,5.93-6.1,5.93c-3.38,0-6.1-2.66-6.1-5.93c0-3.27,2.73-5.93,6.1-5.93
					C414.04,422.9,416.77,425.56,416.77,428.84z"/>
			</g>
		</g>
		<g>
			<path class="st3" d="M566.88,452c6.08,12.01,1,26.53-11.37,32.44c-12.36,5.91-27.31,0.97-33.4-11.04
				c-6.09-12.01-1-26.53,11.37-32.43C545.83,435.05,560.79,439.99,566.88,452z"/>
			<g>
				<path class="st4" d="M510.77,435.68c0,12.55,10.48,22.72,23.4,22.72c12.92,0,23.39-10.18,23.39-22.72s-10.47-22.72-23.39-22.72
					C521.25,412.96,510.77,423.13,510.77,435.68z"/>
				<path class="st5" d="M519.53,428.84c0,3.27,2.74,5.93,6.1,5.93c3.38,0,6.1-2.66,6.1-5.93c0-3.27-2.73-5.93-6.1-5.93
					C522.27,422.9,519.53,425.56,519.53,428.84z"/>
			</g>
		</g>
		<g>
			<path class="st4" d="M460.71,419.27c0,0,7.2-5.12,15.26,0c8.83,5.6-7.88,9.54-7.88,9.54S452.95,424.3,460.71,419.27z"/>
		</g>
		<path class="st6" d="M446.02,444.5h43.53c0,0,9.47,54.14-18.78,54.14C442.52,498.64,446.02,444.5,446.02,444.5z"/>
	</g>
</g>
<g id="ear_x5F_babbit">
	<path class="st7" d="M199.54,94.9c0,0,170.43,73.8,179.21,253.46C378.75,348.36,239.53,245.42,199.54,94.9z"/>
	<path class="st7" d="M726.87,77.42c0,0-170.43,73.8-179.21,253.46C547.66,330.88,686.87,227.94,726.87,77.42z"/>
</g>
</svg>
