<?xml version="1.0" encoding="utf-8"?>
<!-- Generator: Adobe Illustrator 23.0.6, SVG Export Plug-In . SVG Version: 6.00 Build 0)  -->
<svg version="1.1" id="sheep" xmlns="http://www.w3.org/2000/svg" xmlns:xlink="http://www.w3.org/1999/xlink" x="0px" y="0px"
	 viewBox="0 0 960 960" style="enable-background:new 0 0 960 960;" xml:space="preserve">
<style type="text/css">
	.st0{fill:#FFFFFF;stroke:#8E6642;stroke-width:5;stroke-miterlimit:10;}
	.st1{fill:#FF9999;stroke:#8E6642;stroke-width:4;stroke-miterlimit:10;}
	.st2{fill:#FFFF97;stroke:#8E6642;stroke-width:4;stroke-miterlimit:10;}
	.st3{fill:#FFC878;}
	.st4{fill:none;stroke:#8E6642;stroke-width:3;stroke-linecap:round;stroke-linejoin:round;stroke-miterlimit:10;}
	.st5{fill:#FFAEAE;}
	.st6{fill:#8E6642;}
	.st7{fill:#FFFFFF;}
	.st8{fill:#FF9999;stroke:#8E6642;stroke-width:3;stroke-miterlimit:10;}
	.st9{fill:#EFCBAB;}
</style>
<path class="st0" d="M553.45,783.91c0,0,61.03,61.19,143.81-11.77v-35.29c0,0-78.4,16.87-89.69-28.81L553.45,783.91z"/>
<path class="st0" d="M407.94,738.6h34.56l79.02,39.67c-15.99,16.36,9.41,100.24,9.41,100.24L496.8,900
	C425.04,834.53,407.94,738.6,407.94,738.6L407.94,738.6z"/>
<path class="st0" d="M388.88,538.91c0,0-74.2,36.56-109.95,41.8l11.29,41.62c0,0,83.73,7.72,106.31-11.77L388.88,538.91z"/>
<path class="st0" d="M579.92,537.84c0,0,80.2,15.51,116.03,11l-1.49,43.37c0,0-79.39,29.95-105.69,17.12L579.92,537.84z"/>
<path class="st0" d="M397,525.02c0,0-14,35.9-12.7,85.55c1.23,46.71-15.74,190.94,148.15,179.98c0,0,58.57,2.12,104.71-43.64
	c51.91-51.49-8.32-136.33-8.32-136.33s-45.71-79.85-64.67-127.45L397,525.02z"/>
<path class="st1" d="M389.81,490.55c0,0-14.74,27.58,3.34,44.96c0,0,141.31,56.85,212.99,0.51c0,0,8.26-24.47-2.83-34.03
	l-129.99-18.86L389.81,490.55z"/>
<path class="st2" d="M421.86,602.42c0,0,18.03-80.98,52.68-77.28c34.65,3.71,36.81,77.26,33.4,94.03S442.4,653.96,421.86,602.42z"/>
<path class="st3" d="M431.55,603.21c0,0,18.36,40.82,68.12,13.32C499.67,616.53,474.72,575.28,431.55,603.21z"/>
<path class="st0" d="M384.29,270.39c0,0-85.56,52.78-164.05,72.77C220.24,343.16,299.99,466.83,384.29,270.39"/>
<path class="st0" d="M637.94,313.9c0,0,85.57,52.78,164.06,72.77C802,386.67,722.25,510.34,637.94,313.9"/>
<path class="st0" d="M424.21,233.97c0,0-187.01,144.27-82.72,232.81c97.97,83.19,230.14,54.41,230.14,54.41
	s102.42-23.69,98.72-99.09C666.92,352.29,586.52,135,424.21,233.97z"/>
<g>
	<path class="st4" d="M499.67,622.34"/>
	<g>
		<g>
			<path class="st5" d="M351.2,376.32c-7,15.5-1.16,34.21,13.09,41.83c14.23,7.62,31.46,1.26,38.48-14.23
				c7.01-15.48,1.14-34.21-13.1-41.83C375.43,354.47,358.21,360.85,351.2,376.32z"/>
			<g>
				<path class="st6" d="M415.83,355.28c0,16.19-12.07,29.3-26.96,29.3c-14.88,0-26.95-13.12-26.95-29.3s12.07-29.29,26.95-29.29
					C403.76,325.99,415.83,339.1,415.83,355.28z"/>
				<path class="st7" d="M405.73,346.46c0,4.22-3.15,7.64-7.03,7.64s-7.03-3.42-7.03-7.64c0-4.23,3.15-7.65,7.03-7.65
					C402.58,338.81,405.73,342.23,405.73,346.46z"/>
			</g>
		</g>
		<g>
			<path class="st5" d="M598.74,401.62c7,15.5,1.15,34.21-13.09,41.84c-14.24,7.62-31.46,1.25-38.48-14.23
				c-7.01-15.49-1.14-34.21,13.1-41.83C574.5,379.78,591.72,386.15,598.74,401.62z"/>
			<g>
				<path class="st6" d="M534.11,380.58c0,16.19,12.06,29.31,26.95,29.31c14.88,0,26.94-13.12,26.94-29.31
					c0-16.18-12.07-29.29-26.94-29.29C546.17,351.28,534.11,364.4,534.11,380.58z"/>
				<path class="st7" d="M544.2,371.74c0,4.23,3.15,7.65,7.03,7.65c3.89,0,7.03-3.42,7.03-7.65c0-4.22-3.14-7.64-7.03-7.64
					C547.35,364.11,544.2,367.53,544.2,371.74z"/>
			</g>
		</g>
		<g>
			<path class="st6" d="M456.49,362c0,0,8.29-6.6,17.57,0c10.18,7.22-9.06,12.3-9.06,12.3S447.55,368.48,456.49,362z"/>
		</g>
		<path class="st8" d="M439.62,389.47h50.14c0,0,10.91,51.9-21.63,51.9C435.58,441.37,439.62,389.47,439.62,389.47z"/>
	</g>
</g>
<path class="st0" d="M687.52,184.3c-0.51-4.11-1.34-8.23-2.59-12.3c-10.91-35.72-46.39-55.04-79.24-43.18
	c-7.58,2.74-14.31,6.95-20.13,12.18c-0.21-0.77-0.4-1.53-0.64-2.29c-14.75-48.24-62.67-74.35-107.05-58.32
	c-29.68,10.72-50.23,37.6-56.19,68.66c-17.49-13.79-40.59-18.59-62.65-10.62c-36.39,13.15-56.08,55.88-43.98,95.44
	c10.54,34.46,41.72,55.12,73.64,51.19c0.39,1.77,0.82,3.54,1.35,5.31c10.38,33.96,44.12,52.33,75.35,41.05
	c8.32-3,15.58-7.85,21.63-13.93c9.79,28.62,38.69,43.9,65.55,34.19c8.74-3.15,16.18-8.58,22-15.46c9.21,2.33,19.1,2.1,28.73-1.39
	c9.49-3.43,17.44-9.53,23.51-17.25c15.46,8.1,33.7,9.98,51.28,3.62c35.86-12.95,55.27-55.08,43.35-94.06
	C715.52,207.79,703.01,192.86,687.52,184.3z"/>
<polygon class="st9" points="291.04,588.85 297.52,612.53 313.74,613.14 310.32,583.29 "/>
<path class="st9" d="M686.17,559.99l-0.96,24.68c0,0-11.17,3.93-12.23,4.06c-1.05,0.13,0.45-28.74,0.45-28.74
	S685.34,559.99,686.17,559.99z"/>
<path class="st9" d="M494.32,853.86l21.3-13.41l-5.6-23.75l-33.31,18.58C476.71,835.28,491.27,852.84,494.32,853.86z"/>
<path class="st9" d="M687.77,748.86v18.28c0,0-11.08,9.58-12.49,9.58l0.8-26.91L687.77,748.86z"/>
</svg>
