<?xml version="1.0" encoding="utf-8"?>
<!-- Generator: Adobe Illustrator 23.0.6, SVG Export Plug-In . SVG Version: 6.00 Build 0)  -->
<svg version="1.1" id="tiher" xmlns="http://www.w3.org/2000/svg" xmlns:xlink="http://www.w3.org/1999/xlink" x="0px" y="0px"
	 viewBox="0 0 960 960" style="enable-background:new 0 0 960 960;" xml:space="preserve">
<style type="text/css">
	.st0{fill:#FFE266;stroke:#8E6642;stroke-width:5;stroke-miterlimit:10;}
	.st1{fill:#FFFDE1;}
	.st2{fill:#FFE266;}
	.st3{fill:none;stroke:#8E6642;stroke-width:3;stroke-linecap:round;stroke-linejoin:round;stroke-miterlimit:10;}
	.st4{fill:#8E6642;}
	.st5{fill:#FFAEAE;}
	.st6{fill:#FFFFFF;}
	.st7{fill:#FF9999;stroke:#8E6642;stroke-width:3;stroke-miterlimit:10;}
	.st8{fill:none;stroke:#8E6642;stroke-width:4;stroke-linecap:round;stroke-linejoin:round;stroke-miterlimit:10;}
</style>
<g id="body_x5F_tiger">
	<path class="st0" d="M394.29,508.88c0,0-85.57-75.83-164.86-93.81c0,0-71.99-12.84-11.25,59.72
		c52.2,62.35,128.08,105.25,148.91,125.06c3.41,3.24,5.35,5.86,5.46,7.85C373.4,621.82,394.29,508.88,394.29,508.88z"/>
	<path class="st0" d="M656.6,722.57c0,0,92.16-24.98,76-143.13c-16.16-118.15,85.22-198.7,130.06-203.54
		c41.62-4.5,43.86,23.84,9,52.69c-34.87,28.85-106.61,39.4-87.73,181.68C800.8,737.39,646.24,782.52,656.6,789.49
		C666.96,796.47,656.6,722.57,656.6,722.57z"/>
	<path class="st0" d="M561.61,488.27c0,0,42.6,115.58,44.73,134.84c0,0,37-5.14,57.24,32.11c20.25,37.24,30.09,128.73-38.24,156.66
		c0,0-27.84,9.63-53.99,0c-26.15-9.63-144.25-2.99-167.03,4.28c-22.78,7.28-77.61,22.69-97.01-18.73
		c-19.4-41.41-66.64-106.42-16.87-156.03c0,0,29.52-32.48,53.56-14.86c0,0,30.79-132.5,58.63-151.76L561.61,488.27z"/>
	<path id="head_x5F_tiger" class="st0" d="M686.98,237.69c0-42.9-30.47-77.69-68.05-77.69c-25.5,0-47.69,16.04-59.34,39.75
		c-52-45.45-120.41-63.59-193.66,9.86c-9.87-29.01-34.5-49.61-63.39-49.61c-37.58,0-68.05,34.79-68.05,77.69
		c0,42.31,29.64,76.65,66.49,77.6c-24.02,56.6-32.6,122.12,29.48,157.39c123.9,70.39,243.24,10.42,243.24,10.42
		s99.71-51.97,80.42-132.32c-2.57-10.69-7.39-24.26-14.19-39.21C667.23,301.45,686.98,272.22,686.98,237.69z"/>
	<g id="ear_x5F_tiger">
		<path class="st1" d="M577.92,234.35c0,26.92,19.11,48.74,42.69,48.74c23.57,0,42.68-21.82,42.68-48.74
			c0-26.91-19.11-48.73-42.68-48.73C597.04,185.61,577.92,207.43,577.92,234.35z"/>
		<path class="st1" d="M348.94,235.29c0,27.44-19.48,49.68-43.51,49.68c-24.03,0-43.51-22.24-43.51-49.68
			c0-27.43,19.49-49.68,43.51-49.68C329.47,185.61,348.94,207.86,348.94,235.29z"/>
	</g>
</g>
<path id="stomache_x5F_tiger" class="st1" d="M544.2,648.15c0,61.34-32.53,111.08-72.67,111.08c-40.13,0-72.66-49.74-72.66-111.08
	s32.53-111.09,72.66-111.09C511.67,537.06,544.2,586.81,544.2,648.15z"/>
<g id="feet_x5F_tiger">
	<path class="st0" d="M312.66,729.05c0,0-71.56-114.61-109.94-79.12c0,0-7.04,7.53-2.25,23.9c4.78,16.37,67.91,101.7,75.64,114.93
		c6.52,11.16,43.16,30.66,48.65-19.27C324.75,769.5,328.13,755.05,312.66,729.05z"/>
	<path class="st0" d="M627.84,734.08c0,0,71.56-114.61,109.95-79.12c0,0,7.03,7.53,2.25,23.9c-4.78,16.38-67.91,101.7-75.64,114.93
		c-6.52,11.16-43.16,30.66-48.65-19.27C615.75,774.53,612.37,760.09,627.84,734.08z"/>
</g>
<path id="leg_x5F_tiger" class="st2" d="M555.81,664.2c-4.29,41.09-62.07,170.8-62.07,170.8h-32.83
	c-11.46-107.88,56.98-279.95,56.98-279.95s54.59,12.7,34.34,110.36"/>
<g id="face_x5F_tiger">
	<path class="st1" d="M543.12,375.43c0,51.95-36.89,94.06-82.39,94.06c-45.5,0-82.39-42.11-82.39-94.06s36.89-94.06,82.39-94.06
		C506.23,281.37,543.12,323.48,543.12,375.43z"/>
	<path class="st3" d="M421.24,360.71"/>
	<g>
		<path class="st4" d="M294.06,422.89c1.49-4.09,3.78-7.04,6.28-9.58c2.53-2.48,5.36-4.47,8.43-5.89c3.08-1.41,6.38-2.31,9.84-2.41
			c3.45-0.04,7.11,0.57,10.37,3c-3.02,2.78-5.53,4.72-8.15,6.48c-2.6,1.74-5.21,3.26-7.95,4.5c-2.74,1.25-5.6,2.31-8.66,3.04
			C301.12,422.74,297.9,423.22,294.06,422.89z"/>
	</g>
	<g>
		<path class="st4" d="M637.71,422.89c-4.92,0.35-9.39-0.37-13.74-1.4c-4.33-1.08-8.5-2.56-12.54-4.4
			c-4.04-1.82-7.95-4.01-11.74-6.59c-3.78-2.62-7.46-5.53-10.92-9.55c4.87-0.92,9.46-0.49,13.9,0.35c4.43,0.9,8.69,2.33,12.8,4.2
			c4.1,1.88,8.05,4.18,11.8,6.97C631.01,415.3,634.61,418.51,637.71,422.89z"/>
	</g>
	<g>
		<g>
			<path class="st5" d="M335.76,350.46c-6.84,15.88-1.12,35.08,12.79,42.89c13.9,7.82,30.72,1.28,37.57-14.6
				c6.84-15.88,1.12-35.08-12.79-42.89C359.43,328.05,342.61,334.58,335.76,350.46z"/>
			<g>
				<path class="st4" d="M398.87,328.88c0,16.59-11.78,30.04-26.32,30.04c-14.53,0-26.31-13.45-26.31-30.04
					c0-16.59,11.79-30.04,26.31-30.04C387.09,298.84,398.87,312.29,398.87,328.88z"/>
				<path class="st6" d="M389.01,319.83c0,4.33-3.08,7.84-6.86,7.84c-3.8,0-6.86-3.51-6.86-7.84c0-4.33,3.07-7.84,6.86-7.84
					C385.94,311.99,389.01,315.5,389.01,319.83z"/>
			</g>
		</g>
		<g>
			<path class="st5" d="M580.99,350.46c6.84,15.88,1.12,35.08-12.78,42.89c-13.91,7.82-30.73,1.28-37.58-14.6
				c-6.84-15.88-1.12-35.08,12.79-42.89C557.33,328.05,574.14,334.58,580.99,350.46z"/>
			<g>
				<path class="st4" d="M517.89,328.88c0,16.59,11.78,30.04,26.31,30.04c14.53,0,26.31-13.45,26.31-30.04
					c0-16.59-11.78-30.04-26.31-30.04C529.67,298.84,517.89,312.29,517.89,328.88z"/>
				<path class="st6" d="M527.74,319.83c0,4.33,3.08,7.84,6.86,7.84c3.8,0,6.87-3.51,6.87-7.84c0-4.33-3.07-7.84-6.87-7.84
					C530.82,311.99,527.74,315.5,527.74,319.83z"/>
			</g>
		</g>
		<line class="st3" x1="382.15" y1="268.2" x2="406.43" y2="287.94"/>
		<line class="st3" x1="539.89" y1="268.2" x2="515.6" y2="287.94"/>
		<g>
			<path class="st4" d="M449.72,299.37c0,0,8.09-6.77,17.16,0c9.93,7.41-8.86,12.61-8.86,12.61S440.99,306.02,449.72,299.37z"/>
		</g>
		<g>
			<g>
				<path class="st4" d="M430.87,295.13c2.35-5.37,6.48-9.62,11.22-12.49c4.75-2.92,10.24-4.43,15.7-4.45
					c5.45,0.16,10.79,1.64,15.57,4.22c2.42,1.19,4.57,2.99,6.75,4.55c2.01,1.91,3.97,3.86,5.71,6.04c-2.6-0.62-4.95-1.57-7.31-2.39
					c-2.42-0.62-4.71-1.52-7.03-2.08c-4.64-1.24-9.2-1.83-13.73-2.03C448.68,286.52,439.81,289.27,430.87,295.13z"/>
			</g>
		</g>
		<path class="st7" d="M419.35,357.96c0,0-3.78,64.93,40.51,64.93c44.28,0,42.19-63.25,42.19-63.25l-42.47-33.81L419.35,357.96z"/>
		<g>
			<path class="st4" d="M438.22,438.19c8.05,0.94,15.06,2.17,21.99,2.09c3.45-0.01,6.78-0.51,10.18-1.31
				c3.48-0.7,6.69-2.4,10.62-3.99c-1.81,4.11-4.75,7.85-8.52,10.08c-3.72,2.27-8,3.54-12.19,3.54c-4.2,0.02-8.31-0.93-12.08-2.66
				C444.48,444.14,440.94,441.75,438.22,438.19z"/>
		</g>
		<path class="st6" d="M487.63,355.84c0,0,7.67,8.34,9.35,9.79l-8.4,5.98L487.63,355.84z"/>
		<path class="st6" d="M432.66,355c0,0-7.67,8.35-9.35,9.79l8.4,5.99L432.66,355z"/>
		<path class="st3" d="M458.5,306.56v22.32c0,0-21.55,13.71-35.61,30.04c-14.06,16.34-10.4-10.31-10.4-10.31"/>
	</g>
	<path class="st3" d="M458.5,328.88c0,0,25.3,13.71,39.37,30.04c14.06,16.34,6.65-10.31,6.65-10.31"/>
</g>
<g id="foot_x5F_tiger">
	<g>
		<path class="st1" d="M290.23,727.26c0,0-36-57.66-55.31-39.81c0,0-3.54,3.78-1.13,12.03c2.41,8.24,34.16,51.16,38.06,57.82
			c3.28,5.62,21.71,15.43,24.46-9.69C296.3,747.61,298.01,740.34,290.23,727.26z"/>
		<path class="st1" d="M231.82,685.41c0,2.83-2.01,5.11-4.48,5.11c-2.48,0-4.48-2.29-4.48-5.11c0-2.83,2.01-5.11,4.48-5.11
			C229.81,680.3,231.82,682.58,231.82,685.41z"/>
		<path class="st1" d="M243.31,674.51c0,2.79-1.98,5.06-4.43,5.06c-2.45,0-4.43-2.27-4.43-5.06c0-2.79,1.99-5.06,4.43-5.06
			C241.33,669.46,243.31,671.72,243.31,674.51z"/>
	</g>
	<g>
		<path class="st1" d="M652.14,727.26c0,0,36-57.66,55.31-39.81c0,0,3.54,3.78,1.13,12.03c-2.4,8.24-34.16,51.16-38.05,57.82
			c-3.28,5.62-21.71,15.43-24.47-9.69C646.06,747.61,644.36,740.34,652.14,727.26z"/>
		<path class="st1" d="M710.55,685.41c0,2.83,2.01,5.11,4.48,5.11c2.48,0,4.48-2.29,4.48-5.11c0-2.83-2.01-5.11-4.48-5.11
			C712.55,680.3,710.55,682.58,710.55,685.41z"/>
		<path class="st1" d="M699.05,674.51c0,2.79,1.98,5.06,4.43,5.06c2.44,0,4.43-2.27,4.43-5.06c0-2.79-1.98-5.06-4.43-5.06
			C701.04,669.46,699.05,671.72,699.05,674.51z"/>
	</g>
</g>
<g id="border_x5F_tiger">
	<g>
		<path class="st4" d="M458.5,167.87c2.26,7.92,3.43,15.84,4.28,23.76c0.8,7.92,1.17,15.84,1.18,23.76
			c0.01,7.92-0.37,15.84-1.17,23.76c-0.84,7.92-2.02,15.84-4.3,23.76c-2.28-7.92-3.45-15.84-4.3-23.76
			c-0.8-7.92-1.17-15.84-1.17-23.76c0.01-7.92,0.38-15.84,1.18-23.76C455.06,183.71,456.24,175.79,458.5,167.87z"/>
	</g>
	<g>
		<path class="st4" d="M602.3,375.22c11.1-7.47,23.48-12.25,36.02-15.69c12.58-3.41,25.49-5.3,38.43-5.71
			c12.93-0.11,25.92,0.46,38.62,3.26c6.4,0.98,12.62,3.06,18.86,4.79c6.19,1.99,12.25,4.54,18.23,7.12
			c-6.42-0.8-12.64-2.27-18.95-3.12c-6.32-0.76-12.55-1.95-18.87-2.35l-9.42-0.89l-9.43-0.4c-3.14-0.22-6.28-0.25-9.42-0.22
			c-3.14,0.05-6.28-0.11-9.42,0.12l-9.41,0.38l-9.39,0.84c-6.26,0.56-12.5,1.47-18.73,2.52
			C626.95,368.06,614.56,370.94,602.3,375.22z"/>
	</g>
	<g>
		<g>
			<path class="st4" d="M597.76,382.51c12.67-2.67,25.74-2.31,38.55-0.63c12.84,1.72,25.53,5.01,37.81,9.69
				c12.17,4.97,24.21,10.58,35.29,18.19c5.71,3.42,10.93,7.82,16.28,11.88c5.22,4.29,10.14,9.06,14.98,13.83
				c-5.79-3.26-11.19-7.08-16.86-10.35c-5.71-3.19-11.21-6.75-17.01-9.6l-8.58-4.52l-8.74-4.07c-2.88-1.44-5.82-2.7-8.78-3.89
				c-2.97-1.18-5.87-2.56-8.88-3.58l-8.96-3.33l-9.07-2.89c-6.05-1.92-12.19-3.51-18.35-4.97
				C623.07,385.44,610.56,383.29,597.76,382.51z"/>
		</g>
	</g>
	<g>
		<path class="st4" d="M318.25,368.34c-12.26-4.28-24.65-7.16-37.11-9.34c-6.23-1.05-12.47-1.96-18.73-2.52l-9.39-0.84l-9.41-0.38
			c-3.13-0.22-6.28-0.06-9.42-0.11c-3.14-0.04-6.28-0.01-9.42,0.22l-9.43,0.4l-9.42,0.89c-6.31,0.4-12.54,1.59-18.87,2.35
			c-6.31,0.85-12.53,2.32-18.95,3.12c5.98-2.58,12.04-5.13,18.23-7.12c6.24-1.72,12.46-3.81,18.86-4.79
			c12.7-2.8,25.69-3.37,38.62-3.26c12.94,0.42,25.85,2.3,38.43,5.71C294.77,356.08,307.15,360.87,318.25,368.34z"/>
	</g>
	<g>
		<g>
			<path class="st4" d="M322.79,375.63c-12.8,0.78-25.31,2.93-37.66,5.76c-6.17,1.45-12.3,3.04-18.35,4.97l-9.07,2.89l-8.96,3.33
				c-3.01,1.02-5.92,2.4-8.88,3.58c-2.96,1.2-5.9,2.45-8.79,3.89l-8.74,4.07l-8.58,4.52c-5.81,2.85-11.31,6.4-17.01,9.6
				c-5.67,3.27-11.08,7.09-16.87,10.35c4.85-4.76,9.77-9.53,14.98-13.82c5.34-4.06,10.56-8.46,16.28-11.88
				c11.09-7.6,23.12-13.22,35.29-18.19c12.28-4.68,24.97-7.97,37.81-9.69C297.05,373.32,310.12,372.97,322.79,375.63z"/>
		</g>
	</g>
	<g>
		<path class="st4" d="M584.03,550.93c-1.66,3.79-3.8,6.46-6.08,8.8c-2.3,2.29-4.79,4.14-7.44,5.61c-2.65,1.48-5.46,2.56-8.46,3.2
			c-3.02,0.6-6.18,0.86-9.82-0.01c1.66-3.8,3.79-6.48,6.08-8.81c2.3-2.29,4.79-4.14,7.44-5.6c2.65-1.46,5.47-2.54,8.47-3.19
			C577.23,550.33,580.4,550.07,584.03,550.93z"/>
	</g>
	<g>
		<path class="st4" d="M593.55,578.85c-0.69,3.09-1.77,5.03-2.98,6.62c-1.23,1.54-2.61,2.63-4.13,3.33c-1.52,0.7-3.18,1-5,0.84
			c-1.83-0.2-3.79-0.76-6.16-2.48c0.68-3.11,1.77-5.05,2.98-6.63c1.23-1.54,2.61-2.63,4.13-3.31c1.52-0.68,3.18-0.98,5-0.82
			C589.24,576.59,591.19,577.14,593.55,578.85z"/>
	</g>
	<g>
		<path class="st4" d="M362.19,550.93c4.1-0.94,7.81-0.72,11.39-0.15c3.57,0.62,6.98,1.69,10.26,3.15c3.28,1.46,6.42,3.32,9.4,5.64
			c2.97,2.36,5.82,5.08,8.26,8.97c-4.11,0.95-7.81,0.74-11.4,0.17c-3.57-0.62-6.98-1.69-10.26-3.16c-3.27-1.47-6.42-3.34-9.4-5.66
			C367.49,557.51,364.64,554.8,362.19,550.93z"/>
	</g>
	<g>
		<path class="st4" d="M352.33,578.85c3.23-1.42,6.09-1.66,8.83-1.56c2.73,0.15,5.32,0.77,7.78,1.77c2.46,1,4.8,2.42,6.99,4.29
			c2.17,1.92,4.23,4.2,5.92,7.65c-3.23,1.43-6.09,1.68-8.84,1.57c-2.73-0.15-5.32-0.77-7.78-1.79c-2.46-1.02-4.79-2.43-6.98-4.31
			C356.09,584.56,354.02,582.29,352.33,578.85z"/>
	</g>
	<g>
		<path class="st4" d="M308.72,635.3c5.98,0.96,11.37,3.56,16.45,6.73c5.04,3.25,9.76,7.18,13.89,11.96
			c4.11,4.77,7.81,10.17,10.34,16.45c2.48,6.23,3.98,13.3,2.92,20.09c-3.43-5.68-6.69-10.27-10.14-14.78
			c-3.43-4.49-7.18-8.64-10.85-12.94C323.92,654.18,316.05,645.98,308.72,635.3z"/>
	</g>
	<g>
		<path class="st4" d="M284.2,649.93c3.85-0.66,7.32,0.25,10.52,1.69c3.18,1.5,6.08,3.71,8.55,6.52c2.45,2.84,4.44,6.35,5.64,10.26
			c1.1,3.97,1.35,8.44-0.19,12.49l-7.16-7.41c-2.15-2.17-4.11-4.27-6.05-6.57c-1.97-2.26-3.91-4.67-5.81-7.38
			C287.8,656.8,285.95,653.84,284.2,649.93z"/>
	</g>
	<g>
		<path class="st4" d="M631.5,626.55c-3.11,4.88-5.47,9.4-7.93,13.86l-7.08,13.39c-2.41,4.43-4.73,8.99-7.4,13.49
			c-1.3,2.27-2.62,4.57-4.16,6.81c-1.48,2.28-2.94,4.59-4.89,6.79c-0.37-3.04-0.24-5.96-0.14-8.93c0.28-2.9,0.71-5.77,1.31-8.6
			c1.34-5.59,3.21-11.05,5.94-16.04c2.67-5,5.98-9.65,10.04-13.44C621.25,630.22,626.05,626.97,631.5,626.55z"/>
	</g>
	<g>
		<path class="st4" d="M650.88,638.52c-1.15,3.58-2.45,6.13-3.83,8.44c-1.38,2.27-2.84,4.18-4.35,5.91
			c-1.49,1.74-3.08,3.23-4.84,4.74l-6.36,5.32c-1.78-3.27-1.76-7.1-0.97-10.43c0.85-3.31,2.48-6.19,4.48-8.47
			c2.01-2.28,4.42-3.95,7.06-5C644.72,638.03,647.61,637.53,650.88,638.52z"/>
	</g>
	<g>
		<path class="st4" d="M780.37,428.59c3.13-0.85,5.86-0.1,8.26,1.17c2.38,1.33,4.42,3.38,5.93,5.92c1.54,2.51,2.42,5.66,2.5,8.84
			c0.1,3.17-0.83,6.51-3.01,9.07c-2.39-2.54-3.73-4.37-5.16-6.05c-1.35-1.67-2.38-3.22-3.41-4.92c-1-1.7-1.89-3.57-2.76-5.79
			C781.86,434.59,781.07,432.11,780.37,428.59z"/>
	</g>
	<g>
		<path class="st4" d="M787.21,516.25c-3.62-0.53-6.45-1.44-9.1-2.47c-2.63-1.03-4.98-2.22-7.23-3.39
			c-2.25-1.16-4.33-2.41-6.55-3.75c-2.24-1.27-4.54-2.58-7.97-4.25c2.17-3.37,5.71-5.05,9.21-5.46c3.5-0.3,6.94,0.58,9.94,2.17
			c3.01,1.59,5.56,3.95,7.62,6.77C785.15,508.74,786.79,512.05,787.21,516.25z"/>
	</g>
	<g>
		<path class="st4" d="M733.52,587.15c1.73-3.54,4.17-5.77,6.79-7.48c2.64-1.65,5.56-2.67,8.63-2.9c3.07-0.21,6.3,0.2,9.33,1.89
			c2.97,1.65,5.76,4.52,6.54,8.49c-3.57,0.22-5.9,0.75-8.24,1.13c-2.29,0.35-4.54,0.81-6.87,0.94c-2.34,0.15-4.79,0.2-7.42-0.03
			C739.62,588.92,736.84,588.44,733.52,587.15z"/>
	</g>
	<g>
		<path class="st4" d="M776.05,674.47c-2.48-3.29-4.23-6.18-5.83-8.97c-1.57-2.78-2.96-5.36-4.26-7.86l-4.05-7.32
			c-1.43-2.62-3.23-4.99-5.55-8.6c3.54-1.42,7.53-1.03,10.88,0.91c3.35,1.91,6.2,4.98,8.06,8.55c1.86,3.57,2.9,7.53,3.12,11.5
			C778.58,666.66,778.08,670.72,776.05,674.47z"/>
	</g>
	<path class="st4" d="M822,390.24c0,0,33.2,17.34,27.87,50.73c0,0,49.79-28.26,45.29-50.73C890.65,367.77,836.11,380.06,822,390.24z
		"/>
	<g>
		<path class="st4" d="M314.68,461.88c0.27-3.9,1.58-6.91,3.17-9.55c1.63-2.6,3.68-4.75,6.03-6.43c2.35-1.67,5.04-2.8,7.91-3.26
			c2.89-0.38,6.02-0.11,8.98,1.82c-2.03,3.17-3.75,5.25-5.55,7.17c-1.79,1.92-3.61,3.49-5.6,4.88c-1.98,1.4-4.12,2.58-6.52,3.54
			C320.68,460.99,318.07,461.73,314.68,461.88z"/>
	</g>
	<g>
		<path class="st4" d="M613.25,449.75c-3.22,1.29-5.99,1.51-8.65,1.42c-2.64-0.14-5.12-0.67-7.47-1.55
			c-2.36-0.88-4.59-2.08-6.74-3.66c-2.19-1.62-4.1-3.52-6.5-6.24c2.73-2.48,5.85-3.09,8.62-3.27c2.81-0.11,5.51,0.35,8.01,1.31
			c2.51,0.95,4.88,2.34,7.04,4.23C609.71,443.93,611.72,446.25,613.25,449.75z"/>
	</g>
	<g>
		<path class="st4" d="M490.64,635.3c3.17-1.96,6.32-2.41,9.38-2.32c3.06,0.13,6.05,0.98,8.86,2.54c2.79,1.54,5.45,3.77,7.44,6.94
			c1.94,3.09,3.31,7.28,2.21,11.26c-3.18-1.97-5.49-2.76-7.77-3.78c-2.22-1-4.44-1.97-6.65-3.2c-2.2-1.23-4.42-2.67-6.68-4.44
			C495.19,640.48,492.95,638.41,490.64,635.3z"/>
	</g>
	<g>
		<path class="st4" d="M543.23,711.36c-4.11,0.14-7.6-0.5-10.96-1.35c-3.33-0.88-6.47-1.99-9.47-3.29c-3.01-1.33-5.87-2.69-8.72-4.2
			c-2.92-1.45-5.53-3.21-9.5-4.24c2.52-4.01,7.1-5.24,10.91-5.44c3.94-0.14,7.74,0.68,11.16,2.2c3.44,1.5,6.62,3.58,9.45,6.22
			C538.91,703.96,541.47,707.09,543.23,711.36z"/>
	</g>
	<g>
		<path class="st4" d="M466.76,734.84c2.5-2.93,5.39-4.4,8.32-5.32c2.95-0.85,6-1.06,9.04-0.49c3.03,0.58,6.07,1.8,8.73,4.05
			c2.6,2.25,4.92,5.49,5.33,9.57c-3.59-0.3-6.08-0.31-8.56-0.48c-2.44-0.18-4.83-0.34-7.22-0.83c-2.4-0.47-4.87-1.08-7.44-2.05
			C472.37,738.3,469.73,737.05,466.76,734.84z"/>
	</g>
	<g>
		<path class="st4" d="M511.7,793.12c-3.26,0.35-5.72,0.22-8.03-0.07c-2.28-0.31-4.29-0.77-6.21-1.4c-1.92-0.66-3.72-1.35-5.68-2.36
			c-1.99-1.06-4.05-2.03-7.02-3.85c1.68-3.18,4.38-5.13,7.2-5.95c2.82-0.81,5.82-0.76,8.5,0.18c2.69,0.9,5.14,2.5,7.13,4.71
			C509.55,786.61,511.19,789.37,511.7,793.12z"/>
	</g>
	<g>
		<path class="st4" d="M390.38,817.13c-2.05-5.59-3.46-10.83-4.76-16l-3.59-15.12c-1.22-4.91-2.37-9.74-3.79-14.57
			c-1.48-4.81-3.15-9.5-5.43-15.05c5.17,1.5,9.59,5.52,12.93,10.26c3.26,4.83,5.45,10.41,6.84,16.1c1.38,5.71,1.82,11.58,1.57,17.38
			C393.8,805.91,392.86,811.71,390.38,817.13z"/>
	</g>
	<g>
		<path class="st4" d="M308.72,555.05c-1.05-4.06-0.98-7.72-0.56-11.22c0.46-3.49,1.39-6.8,2.75-9.9c1.34-3.1,3.11-6,5.4-8.55
			c2.3-2.48,5.08-4.83,8.76-5.63c-0.22,4.19-0.66,7.47-1.4,10.69c-0.75,3.17-1.72,6.18-2.98,9.05c-1.27,2.87-2.8,5.63-4.68,8.26
			C314.07,550.37,311.88,552.87,308.72,555.05z"/>
	</g>
	<g>
		<path class="st4" d="M305.49,453.17c0.11,3.89-0.07,6.88-0.48,9.76c-0.42,2.84-1.03,5.48-1.88,8.03
			c-0.82,2.57-1.92,5.03-3.31,7.52c-1.45,2.47-3.08,4.97-5.77,7.48c-1.8-3.35-2.43-6.69-2.54-9.96c-0.09-3.27,0.42-6.46,1.41-9.47
			c1.02-2.99,2.51-5.8,4.54-8.2C299.53,455.98,302.05,453.85,305.49,453.17z"/>
	</g>
	<g>
		<path class="st4" d="M244.81,497.89c-1.85-2.96-1.98-6.22-1.69-9.07c0.36-2.88,1.34-5.48,2.71-7.7c1.36-2.25,3.18-4.04,5.29-5.39
			c2.16-1.29,4.61-2.16,7.71-1.94c-0.01,3.58-0.61,6.16-1.33,8.5c-0.72,2.32-1.68,4.27-2.76,6.05c-1.1,1.77-2.41,3.33-3.96,4.84
			C249.21,494.71,247.4,496.02,244.81,497.89z"/>
	</g>
	<g>
		<path class="st4" d="M567.11,807.08c-2.49-5.21-3.69-10.63-4.43-16.08c-0.71-5.45-0.78-10.97-0.29-16.47
			c0.47-5.49,1.6-11.01,3.58-16.28c2-5.15,4.83-10.52,9.47-13.48c-0.77,5.79-0.83,10.77-1.14,15.87c-0.28,5.05-0.6,10.09-1.05,15.19
			c-0.46,5.09-1.12,10.21-2.01,15.4C570.29,796.42,569.14,801.65,567.11,807.08z"/>
	</g>
	<path class="st8" d="M555.81,664.2c-4.29,41.09-62.07,170.8-62.07,170.8h-32.83c-11.46-107.88,56.98-279.95,56.98-279.95"/>
</g>
</svg>
